<svg width="223" height="63" viewBox="0 0 223 63" fill="none" xmlns="http://www.w3.org/2000/svg">
<path d="M0.000488281 25.9476L28.2094 0.196289L37.2368 7.92099L11.2812 31.0951L0.000488281 25.9476Z" fill="white"/>
<path d="M11.2807 15.645V57.3598L0 51.6983V25.947L11.2807 15.645Z" fill="white"/>
<path d="M0 51.6987L11.2807 61.9936H28.2089V51.6987H0Z" fill="white"/>
<path d="M37.2368 7.92041L56.4183 24.3979V40.3684L28.0615 16.0676L37.2368 7.92041Z" fill="white"/>
<path d="M45.1445 51.6638L45.1586 30.729L56.4182 40.369V61.994" fill="white"/>
<path d="M56.4182 51.6348V61.993L45.1445 51.6629L56.4182 51.6348Z" fill="white"/>
<path d="M63.9155 6.30759V5.70905C63.9155 4.61759 64.0352 3.70217 64.2817 2.9628C64.5282 2.22343 64.9577 1.57559 65.5844 1.01226L65.7534 0.843262H72.7528V12.0817H89.3852V17.0743L79.8086 38.2204H72.9218L82.1182 17.2785H66.4505V6.30759H63.9155Z" fill="white"/>
<path d="M94.2939 11.7515H102.765H102.955C106.807 15.6173 110.215 19.4269 113.187 23.1871C113.813 22.7224 114.25 22.0393 114.511 21.1309C114.764 20.2226 114.898 19.0396 114.898 17.582V17.2932H112.757V16.6947C112.757 15.8427 112.863 15.0258 113.081 14.2372C113.299 13.4485 113.49 12.8922 113.659 12.5613C113.828 12.2303 113.989 11.9627 114.151 11.7515H114.342H121.637C121.637 12.005 121.637 12.4345 121.651 13.0401C121.658 13.6386 121.665 14.1104 121.665 14.4484C121.665 15.3498 121.637 16.1595 121.58 16.8778C121.524 17.596 121.397 18.441 121.193 19.3917C120.989 20.3493 120.714 21.2155 120.362 22.0041C120.01 22.7928 119.51 23.6026 118.855 24.4476C118.207 25.2926 117.426 26.046 116.531 26.722C119.616 30.7146 121.975 34.2636 123.615 37.362L124.073 38.2281H116.898H116.708C113.497 32.8553 109.863 27.8839 105.814 23.3279C104.511 24.3419 103.427 25.7362 102.547 27.5177C101.674 29.2993 101.237 31.0245 101.237 32.6933H102.913L103.082 33.0313C103.49 33.8834 103.688 35.1368 103.688 36.7845C103.688 37.2986 103.666 37.7774 103.617 38.2281H103.547H95.2587C95.2587 35.9184 95.3854 33.8411 95.6459 32.0033C95.8994 30.1654 96.2234 28.6444 96.6107 27.4332C96.9979 26.2221 97.512 25.1165 98.1598 24.1096C98.8077 23.1097 99.4203 22.3139 100.005 21.7295C100.582 21.145 101.286 20.5254 102.124 19.8635C99.8639 17.2158 97.5965 14.8005 95.3361 12.6176L94.2939 11.7515Z" fill="white"/>
<path d="M127.58 17.286V16.2298C127.58 15.3143 127.664 14.5609 127.84 13.9694C128.016 13.3779 128.382 12.6385 128.946 11.7583H136.459V38.2349H130.15V17.286H127.58Z" fill="white"/>
<path d="M141.972 37.0236C141.972 35.6645 142.571 34.3337 143.775 33.0239H150.45V19.2997C150.45 18.4336 150.338 17.8773 150.119 17.6379C149.901 17.3985 149.556 17.2788 149.084 17.2788H148.683H143.69V16.7154C143.69 15.1804 144.317 13.6312 145.57 12.082H150.598C152.394 12.082 153.873 12.6172 155.027 13.6875C156.182 14.7579 156.76 16.3986 156.76 18.6167V38.2207H142.057V37.6573C142.057 37.6432 142.043 37.5587 142.021 37.3968C141.986 37.2419 141.972 37.1151 141.972 37.0236Z" fill="white"/>
<path d="M161.971 11.9486L162.527 11.7514C163.506 11.4205 164.407 11.2515 165.224 11.2515C165.886 11.2515 167.013 11.4416 168.611 11.8289L170.421 16.8848C171.322 15.2934 172.519 13.9836 173.998 12.9626C175.477 11.9415 177.237 11.4275 179.265 11.4275C181.504 11.4275 183.49 11.8007 185.222 12.5471C186.954 13.2935 188.342 14.3216 189.391 15.6243C190.44 16.9341 191.229 18.4128 191.757 20.0676C192.285 21.7224 192.553 23.518 192.553 25.4615C192.553 30.0879 191.299 33.4961 188.785 35.679C186.271 37.8619 182.828 38.9604 178.448 38.9604C178.258 38.9604 178.068 38.9533 177.885 38.9463C177.702 38.9393 177.505 38.9181 177.293 38.8829C177.082 38.8477 176.906 38.8266 176.765 38.8125C176.617 38.7984 176.434 38.7632 176.209 38.7069C175.984 38.6505 175.822 38.6153 175.73 38.6013C175.632 38.5872 175.455 38.5379 175.202 38.4534C174.941 38.3759 174.787 38.3266 174.73 38.3125C174.674 38.2985 174.505 38.2492 174.223 38.1576C173.942 38.0661 173.787 38.0309 173.751 38.0309C173.54 37.3549 173.442 36.6718 173.442 35.9818C173.442 34.7706 173.829 33.3623 174.596 31.7568L175.054 30.8132L175.73 31.6934C176.131 32.2286 176.462 32.5806 176.716 32.7426C176.969 32.9046 177.406 32.9891 178.019 32.9891C180.68 32.9891 182.722 32.2778 184.131 30.8625C185.539 29.4471 186.25 27.5951 186.25 25.3137C186.25 22.9054 185.666 20.976 184.49 19.5465C183.321 18.11 181.49 17.3918 179.004 17.3918C178.012 17.3918 177.124 17.5819 176.343 17.9692C175.561 18.3565 174.913 18.8705 174.392 19.5184C173.871 20.1662 173.406 20.969 173.005 21.9125C172.604 22.8561 172.28 23.8349 172.04 24.8348C171.801 25.8347 171.576 26.9544 171.364 28.1796C171.153 29.4049 170.956 30.5526 170.773 31.623C170.59 32.6933 170.4 33.8341 170.216 35.0593C170.033 36.2846 169.836 37.3408 169.618 38.228H163.203L165.006 21.3069L161.971 11.9486Z" fill="white"/>
<path d="M195.186 42.2206C195.186 40.0236 196.031 38.1857 197.713 36.707L203.924 34.6367L198.868 17.2861H196.171C196.023 16.8918 195.953 16.5538 195.953 16.2721C195.953 14.2864 196.453 12.8921 197.446 12.0894H204.269L210.269 32.9538C210.755 32.7285 211.241 32.482 211.726 32.2074C212.212 31.9327 212.762 31.5666 213.367 31.1089C213.973 30.6512 214.501 30.1723 214.951 29.6724C215.395 29.1724 215.775 28.595 216.085 27.9401C216.395 27.2782 216.55 26.6093 216.55 25.9121V17.2861H214.05C213.937 17.0889 213.86 16.934 213.811 16.8143C213.761 16.6946 213.74 16.6171 213.747 16.589C213.754 16.5608 213.768 16.5256 213.783 16.4904C213.797 16.4552 213.804 16.42 213.804 16.3918C213.804 14.1455 214.473 12.7161 215.804 12.0964H222.852V23.7151C222.852 25.391 222.648 26.9473 222.254 28.3837C221.852 29.8202 221.324 31.0244 220.676 31.9891C220.028 32.9538 219.381 33.7425 218.74 34.3621C218.099 34.9818 217.451 35.4677 216.789 35.8197L195.488 44.319L195.34 43.5937C195.242 43.129 195.186 42.6713 195.186 42.2206Z" fill="white"/>
<path d="M64.373 61.7256C64.373 61.2609 64.5632 60.8525 64.9505 60.5145C65.4293 60.6694 65.7462 60.7398 65.894 60.7398C66.0771 60.7398 66.2461 60.6623 66.4151 60.5004C66.5841 60.3455 66.6968 60.1906 66.7602 60.0427V54.86H65.373C65.3096 54.6276 65.2744 54.4094 65.2744 54.2122C65.2744 53.9376 65.3237 53.7052 65.4152 53.5151C65.5068 53.3249 65.6476 53.1419 65.8307 52.9658H72.4428C73.2033 52.9658 73.8159 53.1348 74.2666 53.4658C75.2665 54.1699 75.7664 55.191 75.7664 56.5289V62.4861H73.4709V56.4585C73.3793 56.1064 73.1822 55.7825 72.8934 55.4726C72.5977 55.1628 72.2808 54.9656 71.9287 54.86H69.0628V60.5356C68.8375 61.5073 68.3938 62.0988 67.7108 62.3031C67.077 62.5213 66.5489 62.627 66.1335 62.627C65.5068 62.627 64.9364 62.4861 64.4153 62.1974C64.3871 61.9721 64.373 61.8101 64.373 61.7256Z" fill="white"/>
<path d="M77.7241 54.8674V54.6491C77.7241 53.9309 77.9495 53.3323 78.4001 52.8535H80.7661V57.5503L78.4705 58.7263V54.8674H77.7241Z" fill="white"/>
<path d="M82.688 62.0574C82.688 61.5645 82.9063 61.0786 83.3429 60.5997H85.7722V55.6002C85.7722 55.2833 85.73 55.0791 85.6525 54.9946C85.5751 54.9101 85.4483 54.8678 85.2723 54.8678H85.1244H83.3077V54.6636C83.3077 54.1073 83.533 53.544 83.9907 52.9736H85.8215C86.4764 52.9736 87.0116 53.1708 87.4341 53.5581C87.8566 53.9454 88.0678 54.5439 88.0678 55.3537V62.494H82.7091V62.2897C82.7091 62.2827 82.7021 62.2545 82.695 62.1982C82.695 62.1348 82.688 62.0926 82.688 62.0574Z" fill="white"/>
<path d="M89.8706 54.3045C89.8706 53.875 90.0255 53.4313 90.3424 52.9736H93.5182C94.7012 52.9736 95.5955 53.1074 96.2151 53.375C96.8348 53.6426 97.3136 54.0721 97.6446 54.6496C97.8418 54.9523 97.9755 55.2903 98.0319 55.6706C98.0953 56.0508 98.1234 56.6635 98.1234 57.5155V62.494H95.8279V56.9099C95.8279 56.2832 95.6236 55.7903 95.2293 55.4171C94.8279 55.0509 94.2998 54.8678 93.6379 54.8678H89.9481C89.8917 54.6284 89.8706 54.4453 89.8706 54.3045Z" fill="white"/>
<path d="M99.7998 54.2834C99.7998 53.889 99.9477 53.4525 100.243 52.9736H108.447V53.1778C108.447 53.4877 108.419 53.7693 108.369 54.0158C108.313 54.2623 108.271 54.4242 108.236 54.5087C108.2 54.5932 108.137 54.7129 108.046 54.8678H107.37V62.494H104.764V54.8678H99.8984C99.835 54.5791 99.7998 54.382 99.7998 54.2834Z" fill="white"/>
<path d="M110.256 54.8676V54.4803C110.256 54.1494 110.285 53.8748 110.355 53.6565C110.418 53.4382 110.552 53.1706 110.756 52.8467H113.496V62.4938H111.2V54.8676H110.256Z" fill="white"/>
<path d="M115.567 52.9239L115.771 52.8535C116.13 52.7338 116.454 52.6704 116.75 52.6704C116.989 52.6704 117.405 52.7408 117.982 52.8817L118.644 54.7195C118.975 54.1421 119.405 53.6633 119.947 53.2901C120.489 52.9169 121.13 52.7338 121.869 52.7338C122.686 52.7338 123.411 52.8676 124.038 53.1422C124.672 53.4168 125.179 53.79 125.559 54.2618C125.939 54.7336 126.228 55.2758 126.425 55.8814C126.622 56.487 126.714 57.1419 126.714 57.846C126.714 59.529 126.256 60.7754 125.341 61.5711C124.425 62.3668 123.172 62.7681 121.573 62.7681C121.503 62.7681 121.433 62.7681 121.369 62.7611C121.299 62.7611 121.228 62.7541 121.151 62.74C121.073 62.7259 121.01 62.7189 120.961 62.7118C120.904 62.7048 120.841 62.6907 120.757 62.6696C120.672 62.6484 120.616 62.6344 120.581 62.6273C120.545 62.6203 120.482 62.6062 120.39 62.578C120.299 62.5499 120.243 62.5287 120.221 62.5287C120.2 62.5217 120.137 62.5076 120.038 62.4724C119.933 62.4442 119.876 62.4231 119.869 62.4231C119.792 62.1767 119.757 61.9302 119.757 61.6767C119.757 61.2331 119.898 60.7261 120.179 60.1346L120.348 59.7895L120.595 60.1134C120.743 60.3106 120.862 60.4374 120.954 60.4937C121.045 60.55 121.207 60.5852 121.426 60.5852C122.397 60.5852 123.137 60.3247 123.651 59.8107C124.165 59.2966 124.425 58.6206 124.425 57.7897C124.425 56.9095 124.214 56.2124 123.785 55.6913C123.355 55.1702 122.693 54.9097 121.785 54.9097C121.419 54.9097 121.102 54.9801 120.813 55.1209C120.531 55.2617 120.292 55.4519 120.102 55.6842C119.912 55.9237 119.743 56.2124 119.595 56.5574C119.447 56.9024 119.334 57.2545 119.243 57.6207C119.151 57.9869 119.074 58.3953 118.996 58.8389C118.919 59.2825 118.848 59.705 118.778 60.0923C118.707 60.4796 118.644 60.9021 118.574 61.3457C118.51 61.7894 118.433 62.1767 118.355 62.5006H116.018L116.672 56.3391L115.567 52.9239Z" fill="white"/>
<path d="M133.015 61.7256C133.015 61.2609 133.205 60.8525 133.592 60.5145C134.071 60.6694 134.388 60.7398 134.536 60.7398C134.719 60.7398 134.888 60.6623 135.057 60.5004C135.226 60.3455 135.338 60.1906 135.402 60.0427V54.86H134.015C133.951 54.6276 133.916 54.4094 133.916 54.2122C133.916 53.9376 133.965 53.7052 134.057 53.5151C134.148 53.3249 134.289 53.1419 134.472 52.9658H141.077C141.838 52.9658 142.45 53.1348 142.901 53.4658C143.901 54.1699 144.401 55.191 144.401 56.5289V62.4861H142.105V56.4585C142.014 56.1064 141.817 55.7825 141.528 55.4726C141.232 55.1628 140.915 54.9656 140.563 54.86H137.697V60.5356C137.472 61.5073 137.028 62.0988 136.345 62.3031C135.712 62.5213 135.183 62.627 134.768 62.627C134.141 62.627 133.571 62.4861 133.05 62.1974C133.029 61.9721 133.015 61.8101 133.015 61.7256Z" fill="white"/>
<path d="M146.366 54.8674V54.6491C146.366 53.9309 146.591 53.3323 147.042 52.8535H149.408V57.5503L147.112 58.7263V54.8674H146.366Z" fill="white"/>
<path d="M151.38 54.7762V54.5861C151.38 54.2692 151.416 53.9876 151.5 53.7341C151.578 53.4806 151.648 53.3045 151.718 53.1989C151.789 53.0933 151.88 52.9736 152 52.8327H154.528V59.3251C154.528 59.649 154.605 59.9378 154.76 60.1983C154.915 60.4588 155.119 60.6701 155.373 60.832C155.626 60.987 155.887 61.1137 156.148 61.2053C156.415 61.2968 156.683 61.3602 156.95 61.3883C157.915 61.3883 158.668 61.0855 159.197 60.487C159.732 59.8885 159.992 59.0716 159.992 58.0295C159.992 56.8887 159.816 56.0296 159.457 55.4522C159.105 54.8748 158.542 54.5931 157.774 54.5931C157.584 54.5931 157.408 54.6143 157.253 54.6636C157.098 54.7128 156.978 54.7621 156.894 54.8185C156.809 54.8748 156.725 54.9311 156.64 54.9734C156.556 55.0227 156.471 55.0438 156.394 55.0438H156.359C156.133 54.9945 156.021 54.7903 156.021 54.4382C156.021 54.396 156.021 54.3396 156.028 54.2622C156.028 54.1847 156.035 54.1284 156.035 54.0932C156.035 53.7059 156.098 53.389 156.225 53.1496C156.922 52.8468 157.669 52.6919 158.471 52.6919C159.056 52.6919 159.577 52.7905 160.028 52.9736C160.478 53.1637 160.844 53.4172 161.126 53.727C161.408 54.0368 161.633 54.4171 161.816 54.8678C161.992 55.3114 162.119 55.7691 162.189 56.2268C162.26 56.6845 162.295 57.1845 162.295 57.7196C162.295 58.452 162.182 59.128 161.957 59.7406C161.732 60.3532 161.401 60.8884 160.964 61.3461C160.52 61.8038 159.95 62.1629 159.246 62.4235C158.542 62.677 157.732 62.8037 156.824 62.8037C155.457 62.8037 154.352 62.4446 153.5 61.7334C152.648 61.0222 152.225 60.1279 152.225 59.0646V54.7692H151.38V54.7762Z" fill="white"/>
<path d="M163.569 54.3045C163.569 53.875 163.724 53.4313 164.041 52.9736H167.217C168.4 52.9736 169.294 53.1074 169.914 53.375C170.534 53.6426 171.012 54.0721 171.343 54.6496C171.54 54.9523 171.674 55.2903 171.731 55.6706C171.794 56.0508 171.822 56.6635 171.822 57.5155V62.494H169.527V56.9099C169.527 56.2832 169.322 55.7903 168.928 55.4171C168.527 55.0509 167.999 54.8678 167.337 54.8678H163.647C163.598 54.6284 163.569 54.4453 163.569 54.3045Z" fill="white"/>
<path d="M174.096 62.4933V62.2891C174.096 61.9511 174.124 61.6623 174.188 61.4159C174.251 61.1694 174.307 61.0004 174.364 60.9159C174.42 60.8314 174.498 60.7258 174.603 60.6061H179.166C179.687 60.6061 180.187 60.3103 180.673 59.7188C181.159 59.1273 181.398 58.395 181.398 57.5148C181.398 56.7121 181.251 56.0713 180.948 55.5924C180.645 55.1136 180.215 54.8671 179.645 54.8671H176.406V56.3107C176.497 56.5431 176.603 56.6839 176.702 56.7543C176.8 56.8247 176.941 56.8529 177.103 56.8529C177.138 56.8529 177.258 56.8388 177.469 56.8036C177.68 56.7684 177.871 56.7543 178.054 56.7543C178.223 57.0993 178.3 57.4585 178.3 57.8458C178.3 58.05 178.244 58.3176 178.124 58.6485C177.589 58.7189 177.117 58.7541 176.695 58.7541C175.321 58.7541 174.455 58.1204 174.096 56.8458V52.98H180.145C180.687 52.98 181.173 53.0856 181.603 53.2828C182.032 53.487 182.37 53.7475 182.631 54.0574C182.891 54.3672 183.095 54.7404 183.264 55.1629C183.426 55.5854 183.539 55.9938 183.602 56.3811C183.666 56.7684 183.694 57.1698 183.694 57.5711C183.694 58.1556 183.588 58.7401 183.377 59.3245C183.166 59.909 182.877 60.4371 182.511 60.9089C182.145 61.3807 181.694 61.7609 181.159 62.0567C180.624 62.3524 180.053 62.5003 179.448 62.5003H174.096V62.4933Z" fill="white"/>
<path d="M190.56 54.3256C190.56 53.8891 190.715 53.4454 191.025 52.9736H195.553C196.7 52.9736 197.581 53.1074 198.193 53.375C198.806 53.6426 199.278 54.0651 199.616 54.6496C199.813 54.9523 199.947 55.2903 200.003 55.6706C200.066 56.0508 200.094 56.6635 200.094 57.5155V62.501H197.799V56.9099C197.799 56.2903 197.602 55.7973 197.214 55.4312C196.827 55.065 196.313 54.8819 195.672 54.8819H190.63L190.595 54.7059C190.567 54.5651 190.56 54.4383 190.56 54.3256ZM190.87 62.494V56.1917L191.116 56.2198C191.778 56.2903 192.405 56.5297 192.996 56.931V62.501H190.87V62.494Z" fill="white"/>
<path d="M201.981 54.8674V54.6491C201.981 53.9309 202.206 53.3323 202.657 52.8535H205.023V57.5503L202.727 58.7263V54.8674H201.981Z" fill="white"/>
<path d="M206.946 62.0574C206.946 61.5645 207.164 61.0786 207.601 60.5997H210.03V55.6002C210.03 55.2833 209.988 55.0791 209.91 54.9946C209.833 54.9101 209.706 54.8678 209.53 54.8678H209.382H207.565V54.6636C207.565 54.1073 207.791 53.544 208.249 52.9736H210.079C210.734 52.9736 211.269 53.1708 211.692 53.5581C212.114 53.9454 212.326 54.5439 212.326 55.3537V62.494H206.967V62.2897C206.967 62.2827 206.96 62.2545 206.953 62.1982C206.946 62.1348 206.946 62.0926 206.946 62.0574Z" fill="white"/>
<path d="M214.051 62.494C214.051 61.9165 214.241 61.318 214.628 60.6913L214.699 60.5997H219.677V56.586C219.677 56.0086 219.522 55.572 219.212 55.2903C218.902 55.0087 218.494 54.8678 217.98 54.8678H214.903V54.6636C214.903 54.0299 215.065 53.4665 215.382 52.9736H215.452H218.029C218.677 52.9736 219.297 53.0863 219.888 53.3187C220.48 53.5511 220.973 53.8961 221.367 54.3608C221.761 54.8256 221.966 55.3467 221.966 55.9382V60.5997H223.001V60.804C223.001 61.2898 222.846 61.8532 222.529 62.494H222.473H214.051Z" fill="white"/>
</svg>
