<svg width="72" height="72" viewBox="0 0 72 72" fill="none" xmlns="http://www.w3.org/2000/svg">
<rect width="72" height="72" rx="36" fill="#FCF3D7"/>
<path d="M27.0002 45.0002L32.7602 32.7602L45.0002 27.0002L39.2402 39.2402L27.0002 45.0002ZM36.0002 34.3802C35.5706 34.3802 35.1585 34.5509 34.8547 34.8547C34.5509 35.1585 34.3802 35.5706 34.3802 36.0002C34.3802 36.4299 34.5509 36.8419 34.8547 37.1458C35.1585 37.4496 35.5706 37.6202 36.0002 37.6202C36.4299 37.6202 36.8419 37.4496 37.1458 37.1458C37.4496 36.8419 37.6202 36.4299 37.6202 36.0002C37.6202 35.5706 37.4496 35.1585 37.1458 34.8547C36.8419 34.5509 36.4299 34.3802 36.0002 34.3802ZM36.0002 18.0002C38.364 18.0002 40.7047 18.4658 42.8885 19.3704C45.0724 20.275 47.0567 21.6009 48.7282 23.2723C50.3996 24.9438 51.7255 26.9281 52.6301 29.1119C53.5347 31.2958 54.0002 33.6364 54.0002 36.0002C54.0002 40.7741 52.1038 45.3525 48.7282 48.7282C45.3525 52.1038 40.7741 54.0002 36.0002 54.0002C33.6364 54.0002 31.2958 53.5347 29.1119 52.6301C26.9281 51.7255 24.9438 50.3996 23.2723 48.7282C19.8967 45.3525 18.0002 40.7741 18.0002 36.0002C18.0002 31.2263 19.8967 26.648 23.2723 23.2723C26.648 19.8967 31.2263 18.0002 36.0002 18.0002ZM36.0002 21.6002C32.1811 21.6002 28.5184 23.1174 25.8179 25.8179C23.1174 28.5184 21.6002 32.1811 21.6002 36.0002C21.6002 39.8194 23.1174 43.4821 25.8179 46.1826C28.5184 48.8831 32.1811 50.4002 36.0002 50.4002C39.8194 50.4002 43.4821 48.8831 46.1826 46.1826C48.8831 43.4821 50.4002 39.8194 50.4002 36.0002C50.4002 32.1811 48.8831 28.5184 46.1826 25.8179C43.4821 23.1174 39.8194 21.6002 36.0002 21.6002Z" fill="#F3AA18"/>
</svg>
