<svg width="72" height="72" viewBox="0 0 72 72" fill="none" xmlns="http://www.w3.org/2000/svg">
<rect width="72" height="72" rx="36" fill="#FEE4E2"/>
<path d="M22.8648 40.6847L21.5688 39.4067C20.1828 38.0027 20.1828 35.7347 21.5688 34.3307C23.0088 32.9087 25.2768 32.9087 26.6808 34.3307L31.3248 38.9567L38.9568 31.3247L34.3308 26.6807C32.9088 25.2767 32.9088 23.0087 34.3308 21.5687C35.7348 20.1827 38.0028 20.1827 39.4068 21.5687L40.6848 22.8647L50.8728 33.0527L52.1688 34.3307C53.5548 35.7347 53.5548 38.0027 52.1688 39.4067C50.7288 40.8287 48.4608 40.8287 47.0568 39.4067L42.4128 34.7807L34.7808 42.4127L39.4068 47.0567C40.8288 48.4607 40.8288 50.7287 39.4068 52.1687C38.0028 53.5547 35.7348 53.5547 34.3308 52.1687L33.0528 50.8727L22.8648 40.6847ZM20.9568 50.2247L22.8648 48.3167L20.3268 45.7787C19.6248 45.0767 19.6248 43.9427 20.3268 43.2407C21.0288 42.5387 22.1628 42.5387 22.8648 43.2407L30.4968 50.8727C31.1988 51.5747 31.1988 52.7087 30.4968 53.4107C29.7948 54.1127 28.6608 54.1127 27.9588 53.4107L25.4208 50.8727L23.5128 52.7807L20.9568 50.2247ZM50.2248 20.9567L52.7808 23.5127L50.8728 25.4207L53.4108 27.9587C54.1128 28.6607 54.1128 29.7947 53.4108 30.4967C52.7088 31.2167 51.5748 31.2167 50.8728 30.4967L43.2408 22.8647C42.5388 22.1627 42.5388 21.0287 43.2408 20.3267C43.9428 19.6247 45.0768 19.6247 45.7788 20.3267L48.3168 22.8647L50.2248 20.9567Z" fill="#EA3D2F"/>
</svg>
