<svg width="72" height="72" viewBox="0 0 72 72" fill="none" xmlns="http://www.w3.org/2000/svg">
<rect width="72" height="72" rx="36" fill="#DCF7E3"/>
<path d="M52.2002 19.8002V42.3002C52.2002 43.9711 51.5365 45.5735 50.355 46.755C49.1735 47.9365 47.5711 48.6002 45.9002 48.6002C44.2294 48.6002 42.627 47.9365 41.4455 46.755C40.264 45.5735 39.6002 43.9711 39.6002 42.3002C39.6002 40.6293 40.264 39.0269 41.4455 37.8454C42.627 36.6639 44.2294 36.0002 45.9002 36.0002C46.8722 36.0002 47.7902 36.2162 48.6002 36.6122V26.0462L30.6002 29.8802V45.9002C30.6002 47.5711 29.9365 49.1735 28.755 50.355C27.5735 51.5365 25.9711 52.2002 24.3002 52.2002C22.6294 52.2002 21.027 51.5365 19.8455 50.355C18.664 49.1735 18.0002 47.5711 18.0002 45.9002C18.0002 44.2293 18.664 42.6269 19.8455 41.4454C21.027 40.264 22.6294 39.6002 24.3002 39.6002C25.2722 39.6002 26.1902 39.8162 27.0002 40.2122V25.2002L52.2002 19.8002Z" fill="#069697"/>
</svg>
