<svg width="56" height="56" viewBox="0 0 56 56" fill="none" xmlns="http://www.w3.org/2000/svg">
<path d="M28 0C12.5562 0 0 12.5562 0 28C0 43.4437 12.5562 56 28 56C43.4437 56 56 43.4437 56 28C56 12.5562 43.4437 0 28 0Z" fill="#1DA1F2"/>
<path d="M38.2868 22.7163C38.2868 22.9519 38.2868 23.1875 38.2868 23.3894C38.2868 30.3558 32.9695 38.399 23.2772 38.399C20.282 38.399 17.5224 37.524 15.1666 36.0433C15.5705 36.0769 16.008 36.1106 16.4118 36.1106C18.8685 36.1106 21.157 35.2692 22.9743 33.8558C20.6522 33.8221 18.7003 32.274 18.0609 30.1875C18.3974 30.2548 18.7003 30.2885 19.0705 30.2885C19.5416 30.2885 20.0128 30.2212 20.4503 30.0865C18.0272 29.6154 16.2099 27.4952 16.2099 24.9375C16.2099 24.9038 16.2099 24.9038 16.2099 24.8702C16.9166 25.274 17.7243 25.5096 18.5993 25.5433C17.1859 24.601 16.2435 22.9856 16.2435 21.1346C16.2435 20.1587 16.5128 19.25 16.9503 18.476C19.5416 21.6731 23.4455 23.7596 27.8205 23.9952C27.7195 23.625 27.6859 23.1875 27.6859 22.7837C27.6859 19.8558 30.0416 17.5 32.9695 17.5C34.4839 17.5 35.8637 18.1394 36.806 19.149C38.0176 18.9135 39.1282 18.476 40.1714 17.8702C39.7676 19.1154 38.9262 20.125 37.8493 20.7981C38.9262 20.6635 39.9359 20.3942 40.8782 19.9567C40.2051 21.0337 39.3301 21.976 38.2868 22.7163Z" fill="white"/>
</svg>
