<svg width="16" height="16" viewBox="0 0 16 16" fill="none" xmlns="http://www.w3.org/2000/svg">
<path d="M3.33203 12V14.5107L4.34203 13.9047L7.5167 12H10.6654C11.4007 12 11.9987 11.402 11.9987 10.6667V5.33333C11.9987 4.598 11.4007 4 10.6654 4H2.66536C1.93003 4 1.33203 4.598 1.33203 5.33333V10.6667C1.33203 11.402 1.93003 12 2.66536 12H3.33203ZM2.66536 5.33333H10.6654V10.6667H7.14736L4.66536 12.156V10.6667H2.66536V5.33333Z" fill="#C7C7C7"/>
<path d="M13.3333 1.3335H12.6667H11.332H5.33333C4.598 1.3335 4 1.9315 4 2.66683H11.0573H12C12.7353 2.66683 13.3333 3.26483 13.3333 4.00016V4.94283V8.00016V9.3335C14.0687 9.3335 14.6667 8.7355 14.6667 8.00016V4.66683V3.3335V2.66683C14.6667 1.9315 14.0687 1.3335 13.3333 1.3335Z" fill="#C7C7C7"/>
</svg>
