<svg width="12" height="12" viewBox="0 0 12 12" fill="none" xmlns="http://www.w3.org/2000/svg">
<g clip-path="url(#clip0_1_1154)">
<path d="M7.1603 10.4918C7.1603 11.2252 6.91466 11.7253 6.47042 11.9329C5.99774 12.0707 5.58602 11.9564 5.42966 11.9396C4.98914 11.7451 4.35422 10.8856 5.35058 10.0967C5.70998 9.79644 6.11402 9.45912 6.16994 8.42424C6.50078 8.72304 7.1603 9.44976 7.1603 10.4918ZM4.82906 0C5.8073 1.98816 5.19182 3.05424 5.19182 3.05424C5.19182 3.05424 4.4303 2.54928 4.13894 2.41728C4.3715 3.49764 4.23254 4.87812 3.38258 5.4306C-0.0374174 8.0766 2.66054 10.7846 3.74858 11.4005C3.37934 10.9472 2.33786 9.25332 4.43546 7.91712C6.58658 6.53424 5.32058 4.812 5.32058 4.812C5.32058 4.812 7.02506 4.521 8.5781 7.82916C9.16814 9.52164 8.52098 10.8379 8.23838 11.3053C9.54962 10.443 10.2924 8.85804 10.2924 7.27896C10.2924 2.70252 5.67746 0.00744 4.82906 0Z" fill="#EB5757"/>
</g>
<defs>
<clipPath id="clip0_1_1154">
<rect width="12" height="12" fill="white"/>
</clipPath>
</defs>
</svg>
