
<svg width="46" height="71" viewBox="0 0 46 71" fill="none" xmlns="http://www.w3.org/2000/svg">
<circle cx="0.739371" cy="0.739371" r="0.739371" fill="#8E99F0"/>
<circle cx="9.61144" cy="0.739371" r="0.739371" fill="#8E99F0"/>
<circle cx="18.4855" cy="0.739371" r="0.739371" fill="#8E99F0"/>
<circle cx="27.3566" cy="0.739371" r="0.739371" fill="#8E99F0"/>
<circle cx="36.2277" cy="0.739371" r="0.739371" fill="#8E99F0"/>
<circle cx="45.1027" cy="0.739371" r="0.739371" fill="#8E99F0"/>
<circle cx="0.739371" cy="10.5983" r="0.739371" fill="#8E99F0"/>
<circle cx="9.61144" cy="10.5983" r="0.739371" fill="#8E99F0"/>
<circle cx="18.4855" cy="10.5987" r="0.739371" fill="#8E99F0"/>
<circle cx="27.3566" cy="10.5983" r="0.739371" fill="#8E99F0"/>
<circle cx="36.2277" cy="10.5987" r="0.739371" fill="#8E99F0"/>
<circle cx="45.1027" cy="10.5987" r="0.739371" fill="#8E99F0"/>
<circle cx="0.739371" cy="20.4552" r="0.739371" fill="#8E99F0"/>
<circle cx="9.61144" cy="20.4552" r="0.739371" fill="#8E99F0"/>
<circle cx="18.4855" cy="20.4562" r="0.739371" fill="#8E99F0"/>
<circle cx="27.3566" cy="20.4552" r="0.739371" fill="#8E99F0"/>
<circle cx="36.2277" cy="20.4562" r="0.739371" fill="#8E99F0"/>
<circle cx="45.1027" cy="20.4562" r="0.739371" fill="#8E99F0"/>
<circle cx="0.739371" cy="30.3141" r="0.739371" fill="#8E99F0"/>
<circle cx="9.61144" cy="30.3141" r="0.739371" fill="#8E99F0"/>
<circle cx="18.4855" cy="30.3136" r="0.739371" fill="#8E99F0"/>
<circle cx="27.3566" cy="30.3141" r="0.739371" fill="#8E99F0"/>
<circle cx="36.2277" cy="30.3136" r="0.739371" fill="#8E99F0"/>
<circle cx="45.1027" cy="30.3136" r="0.739371" fill="#8E99F0"/>
<circle cx="0.739371" cy="40.173" r="0.739371" fill="#8E99F0"/>
<circle cx="9.61144" cy="40.173" r="0.739371" fill="#8E99F0"/>
<circle cx="18.4855" cy="40.173" r="0.739371" fill="#8E99F0"/>
<circle cx="27.3566" cy="40.173" r="0.739371" fill="#8E99F0"/>
<circle cx="36.2277" cy="40.173" r="0.739371" fill="#8E99F0"/>
<circle cx="45.1027" cy="40.173" r="0.739371" fill="#8E99F0"/>
<circle cx="0.739371" cy="50.0314" r="0.739371" fill="#8E99F0"/>
<circle cx="9.61144" cy="50.0314" r="0.739371" fill="#8E99F0"/>
<circle cx="18.4855" cy="50.0323" r="0.739371" fill="#8E99F0"/>
<circle cx="27.3566" cy="50.0314" r="0.739371" fill="#8E99F0"/>
<circle cx="36.2277" cy="50.0323" r="0.739371" fill="#8E99F0"/>
<circle cx="45.1027" cy="50.0323" r="0.739371" fill="#8E99F0"/>
<circle cx="0.739371" cy="59.8888" r="0.739371" fill="#8E99F0"/>
<circle cx="9.61144" cy="59.8888" r="0.739371" fill="#8E99F0"/>
<circle cx="18.4855" cy="59.8878" r="0.739371" fill="#8E99F0"/>
<circle cx="27.3566" cy="59.8888" r="0.739371" fill="#8E99F0"/>
<circle cx="36.2277" cy="59.8878" r="0.739371" fill="#8E99F0"/>
<circle cx="45.1027" cy="59.8878" r="0.739371" fill="#8E99F0"/>
<circle cx="0.739371" cy="69.7472" r="0.739371" fill="#8E99F0"/>
<circle cx="9.61144" cy="69.7472" r="0.739371" fill="#8E99F0"/>
<circle cx="18.4855" cy="69.7472" r="0.739371" fill="#8E99F0"/>
<circle cx="27.3566" cy="69.7472" r="0.739371" fill="#8E99F0"/>
<circle cx="36.2277" cy="69.7472" r="0.739371" fill="#8E99F0"/>
<circle cx="45.1027" cy="69.7472" r="0.739371" fill="#8E99F0"/>
</svg>
