<svg width="27" height="28" viewBox="0 0 27 28" fill="none" xmlns="http://www.w3.org/2000/svg">
<path d="M13.448 27.8623C20.8751 27.8623 26.896 21.8414 26.896 14.4143C26.896 6.98718 20.8751 0.966309 13.448 0.966309C6.02087 0.966309 0 6.98718 0 14.4143C0 21.8414 6.02087 27.8623 13.448 27.8623Z" fill="#6CA4D7"/>
<path d="M10.9894 18.828C10.6199 18.828 10.6827 18.6885 10.5553 18.3367L9.46875 14.7609L17.8322 9.79932" fill="#C8DAEA"/>
<path d="M10.9893 18.8279C11.2744 18.8279 11.4003 18.6976 11.5595 18.5428L13.0801 17.0642L11.1833 15.9204" fill="#A9C9DD"/>
<path d="M11.1827 15.9208L15.7788 19.3165C16.3033 19.6058 16.6818 19.456 16.8125 18.8295L18.6833 10.0134C18.8749 9.24548 18.3906 8.89718 17.8889 9.12497L6.90328 13.361C6.15341 13.6617 6.15778 14.0801 6.76659 14.2665L9.58574 15.1464L16.1124 11.0288C16.4205 10.842 16.7033 10.9424 16.4712 11.1484" fill="url(#paint0_linear_1_1320)"/>
<defs>
<linearGradient id="paint0_linear_1_1320" x1="14.5058" y1="13.6008" x2="16.2905" y2="17.6621" gradientUnits="userSpaceOnUse">
<stop stop-color="#EFF7FC"/>
<stop offset="1" stop-color="white"/>
</linearGradient>
</defs>
</svg>
