<svg width="28" height="27" viewBox="0 0 28 27" fill="none" xmlns="http://www.w3.org/2000/svg">
<circle cx="14.1169" cy="13.448" r="13.448" fill="#596B8F"/>
<path fill-rule="evenodd" clip-rule="evenodd" d="M14.1814 18.4863C14.6571 18.4863 14.6571 17.7465 14.6571 17.4596C14.6571 16.9462 15.1327 16.4328 15.6083 16.4328C16.0839 16.4328 16.8996 17.3133 17.5108 17.9729C17.9865 18.4863 17.9865 18.4863 18.4621 18.4863C18.9377 18.4863 19.889 18.4863 19.889 18.4863C19.889 18.4863 20.8402 18.4473 20.8402 17.4596C20.8402 17.1387 20.5144 16.5945 19.4134 15.4061C18.4621 14.3793 17.9741 14.9096 19.4134 12.8392C20.2899 11.5784 20.9278 10.4361 20.8184 10.1065C20.7137 9.79183 18.2756 9.29078 17.9865 9.75898C17.0352 11.2991 16.8606 11.6764 16.5596 12.3258C16.0839 13.3526 16.0369 13.866 15.6083 13.866C15.176 13.866 15.1327 12.8695 15.1327 12.3258C15.1327 10.6286 15.3605 9.42837 14.6571 9.24561C14.6571 9.24561 13.7058 9.24561 13.2302 9.24561C12.4644 9.24561 11.8033 9.75898 11.8033 9.75898C11.8033 9.75898 11.213 10.2559 11.3276 10.2723C11.4694 10.2929 12.2789 10.0598 12.2789 10.7857C12.2789 11.2991 12.2789 11.8125 12.2789 11.8125C12.2789 11.8125 12.2832 13.866 11.8033 13.866C11.3276 13.866 10.3764 11.8125 9.42511 10.2723C9.05174 9.66811 8.94948 9.75898 8.47385 9.75898C7.96398 9.75898 7.52307 9.78054 7.04696 9.78054C6.57133 9.78054 6.51045 10.1076 6.57133 10.2723C7.52259 12.8392 8.20607 14.4512 10.0135 16.4821C11.671 18.3451 12.7783 18.4442 13.7058 18.4863C13.9436 18.4971 13.7058 18.4863 14.1814 18.4863Z" fill="white"/>
</svg>
