<svg width="94" height="94" viewBox="0 0 94 94" fill="none" xmlns="http://www.w3.org/2000/svg">
<path d="M46.857 93.7339C43.4381 93.7339 40.2254 92.4036 37.8108 89.9824L3.74151 55.9131C-1.24717 50.9244 -1.24717 42.8028 3.74151 37.8142L37.8108 3.74483C40.2254 1.33031 43.4381 0 46.857 0C50.2759 0 53.4886 1.33031 55.9031 3.74483L89.9658 37.8142C94.9545 42.8028 94.9545 50.9244 89.9658 55.9131L55.9031 89.9824C53.4886 92.4036 50.2759 93.7339 46.857 93.7339Z" fill="white"/>
<path d="M55.3707 89.4501C50.6681 94.1527 43.0387 94.1527 38.3361 89.4501L4.26674 55.3807C-0.435919 50.6781 -0.435919 43.0487 4.26674 38.3461L38.3361 4.27675C43.0387 -0.425909 50.6681 -0.425909 55.3707 4.27675L89.4401 38.3461C94.1427 43.0487 94.1427 50.6781 89.4401 55.3807L55.3707 89.4501Z" fill="url(#paint0_linear_53_12469)"/>
<path d="M46.4618 51.143H44.1801C46.0219 49.8772 47.2323 47.756 47.2323 45.3571C47.2323 41.4882 44.0847 38.3406 40.2158 38.3406C36.3468 38.3406 33.1993 41.4882 33.1993 45.3571C33.1993 47.7559 34.4097 49.8771 36.2515 51.143H33.9697C31.1083 51.143 28.7803 53.4796 28.7803 56.3516V63.9744C28.7803 64.5407 29.2394 64.9998 29.8057 64.9998C30.372 64.9998 30.8311 64.5407 30.8311 63.9744V56.3516C30.8311 54.6104 32.2391 53.194 33.9697 53.194H38.9542L36.6197 59.1611C36.4885 59.4964 36.5428 59.8761 36.7629 60.1611L39.404 63.5835C39.5981 63.8352 39.898 63.9825 40.2158 63.9825C40.5336 63.9825 40.8334 63.8352 41.0276 63.5835L43.6687 60.1611C43.8886 59.8761 43.943 59.4964 43.8118 59.1611L41.4773 53.194H46.4618C48.1924 53.194 49.6004 54.6105 49.6004 56.3516V63.9739C49.6004 64.5402 50.0595 64.9994 50.6258 64.9994C51.1922 64.9994 51.6513 64.5402 51.6513 63.9739V56.3516C51.6513 53.4796 49.3233 51.143 46.4618 51.143ZM35.2502 45.3571C35.2502 42.619 37.4777 40.3914 40.2158 40.3914C42.9539 40.3914 45.1815 42.619 45.1815 45.3571C45.1815 48.0951 42.9539 50.3227 40.2158 50.3227C37.4777 50.3227 35.2502 48.0951 35.2502 45.3571ZM40.2158 61.2786L38.7411 59.3676L40.2158 55.5982L41.6905 59.3676L40.2158 61.2786Z" fill="#165E83"/>
<path d="M62.7559 30.0005H50.0406C49.4743 30.0005 49.0151 30.4596 49.0151 31.0259V45.3135C49.0151 45.7196 49.2549 46.0875 49.6264 46.2516C49.7595 46.3103 49.9004 46.3389 50.0404 46.3389C50.2912 46.3389 50.5389 46.2468 50.7315 46.0711L55.1607 42.0321H62.7559C63.3222 42.0321 63.7813 41.573 63.7813 41.0067V31.0259C63.7813 30.4595 63.3222 30.0005 62.7559 30.0005ZM61.7304 39.9812H54.7633C54.5077 39.9812 54.2612 40.0767 54.0723 40.249L51.066 42.9905V32.0513H61.7304V39.9812Z" fill="#165E83"/>
<defs>
<linearGradient id="paint0_linear_53_12469" x1="30.7251" y1="63.7468" x2="75.0009" y2="17.413" gradientUnits="userSpaceOnUse">
<stop offset="0.2449" stop-color="#FFFEFE"/>
<stop offset="0.458333" stop-color="#F0F0F0"/>
<stop offset="0.666667" stop-color="#E6E6E6"/>
<stop offset="0.895833" stop-color="#D0D0D0"/>
</linearGradient>
</defs>
</svg>
