<svg width="94" height="94" viewBox="0 0 94 94" fill="none" xmlns="http://www.w3.org/2000/svg">
<path d="M47.0035 93.7339C43.5846 93.7339 40.3718 92.4036 37.9573 89.9824L3.88799 55.9131C-1.10068 50.9244 -1.10068 42.8028 3.88799 37.8142L37.9573 3.74483C40.3718 1.33031 43.5846 0 47.0035 0C50.4224 0 53.6351 1.33031 56.0496 3.74483L90.1123 37.8142C95.101 42.8028 95.101 50.9244 90.1123 55.9131L56.0496 89.9824C53.6351 92.4036 50.4224 93.7339 47.0035 93.7339Z" fill="white"/>
<path d="M55.5172 89.4501C50.8146 94.1527 43.1852 94.1527 38.4826 89.4501L4.41322 55.3807C-0.289434 50.6781 -0.289434 43.0487 4.41322 38.3461L38.4826 4.27675C43.1852 -0.425909 50.8146 -0.425909 55.5172 4.27675L89.5866 38.3461C94.2892 43.0487 94.2892 50.6781 89.5866 55.3807L55.5172 89.4501Z" fill="url(#paint0_linear_53_12455)"/>
<path d="M61.297 27H33.1719C32.5247 27 32 27.5247 32 28.1719V65.8281C32 66.4753 32.5247 67 33.1719 67H61.297C61.9442 67 62.4689 66.4753 62.4689 65.8281V28.1719C62.4689 27.5247 61.9442 27 61.297 27ZM42.5468 29.3438H51.9222V30.5156C51.9222 31.1618 51.4181 31.6875 50.7985 31.6875H43.6704C43.0508 31.6875 42.5468 31.1618 42.5468 30.5156V29.3438ZM60.1251 64.6562H34.3438V29.3438H40.203V30.5156C40.203 32.4542 41.7585 34.0313 43.6704 34.0313H50.7985C52.7105 34.0313 54.266 32.4542 54.266 30.5156V29.3438H60.1252V64.6562H60.1251Z" fill="#165E83"/>
<path d="M39.9214 36.7182L38.7968 37.8428L38.6929 37.7388C38.2353 37.2812 37.4932 37.2813 37.0356 37.7389C36.5779 38.1965 36.578 38.9385 37.0357 39.3962L37.9683 40.3288C38.1971 40.5576 38.497 40.672 38.7969 40.672C39.0968 40.672 39.3968 40.5575 39.6255 40.3287L41.5786 38.3756C42.0362 37.918 42.0362 37.176 41.5786 36.7183C41.1209 36.2606 40.3789 36.2606 39.9214 36.7182Z" fill="#165E83"/>
<path d="M45.4375 36.375C44.7903 36.375 44.2656 36.8997 44.2656 37.5469C44.2656 38.1941 44.7903 38.7187 45.4375 38.7187H56.6094C57.2566 38.7187 57.7813 38.1941 57.7813 37.5469C57.7813 36.8997 57.2566 36.375 56.6094 36.375H45.4375Z" fill="#165E83"/>
<path d="M45.4375 43.4062H51.4084C52.0556 43.4062 52.5803 42.8816 52.5803 42.2344C52.5803 41.5872 52.0556 41.0625 51.4084 41.0625H45.4375C44.7903 41.0625 44.2656 41.5872 44.2656 42.2344C44.2656 42.8816 44.7902 43.4062 45.4375 43.4062Z" fill="#165E83"/>
<path d="M39.9214 46.0933L38.7968 47.2177L38.6929 47.1138C38.2353 46.6562 37.4932 46.6563 37.0356 47.1138C36.5779 47.5715 36.578 48.3134 37.0357 48.7712L37.9683 49.7038C38.1971 49.9326 38.497 50.047 38.7969 50.047C39.0968 50.047 39.3968 49.9325 39.6255 49.7037L41.5786 47.7506C42.0363 47.2931 42.0363 46.5511 41.5786 46.0934C41.1209 45.6356 40.3789 45.6356 39.9214 46.0933Z" fill="#165E83"/>
<path d="M56.6093 45.75H45.4375C44.7903 45.75 44.2656 46.2747 44.2656 46.9219C44.2656 47.5691 44.7903 48.0938 45.4375 48.0938H56.6094C57.2566 48.0938 57.7813 47.5691 57.7813 46.9219C57.7813 46.2747 57.2565 45.75 56.6093 45.75Z" fill="#165E83"/>
<path d="M45.4375 52.7815H51.4084C52.0556 52.7815 52.5803 52.2568 52.5803 51.6096C52.5803 50.9624 52.0556 50.4377 51.4084 50.4377H45.4375C44.7903 50.4377 44.2656 50.9624 44.2656 51.6096C44.2656 52.2568 44.7902 52.7815 45.4375 52.7815Z" fill="#165E83"/>
<path d="M39.9214 55.4682L38.7968 56.5928L38.6929 56.4888C38.2353 56.0312 37.4932 56.0313 37.0356 56.4889C36.5779 56.9465 36.578 57.6885 37.0357 58.1462L37.9683 59.0788C38.1971 59.3076 38.497 59.422 38.7969 59.422C39.0968 59.422 39.3968 59.3075 39.6255 59.0787L41.5786 57.1256C42.0362 56.668 42.0362 55.926 41.5786 55.4683C41.1209 55.0106 40.3789 55.0106 39.9214 55.4682Z" fill="#165E83"/>
<path d="M56.6093 55.125H45.4375C44.7903 55.125 44.2656 55.6497 44.2656 56.2969C44.2656 56.9441 44.7903 57.4688 45.4375 57.4688H56.6094C57.2566 57.4688 57.7813 56.9441 57.7813 56.2969C57.7813 55.6497 57.2565 55.125 56.6093 55.125Z" fill="#165E83"/>
<path d="M51.4084 59.8127H45.4375C44.7903 59.8127 44.2656 60.3374 44.2656 60.9846C44.2656 61.6318 44.7903 62.1565 45.4375 62.1565H51.4084C52.0556 62.1565 52.5803 61.6318 52.5803 60.9846C52.5803 60.3374 52.0556 59.8127 51.4084 59.8127Z" fill="#165E83"/>
<defs>
<linearGradient id="paint0_linear_53_12455" x1="30.8716" y1="63.7468" x2="75.1474" y2="17.413" gradientUnits="userSpaceOnUse">
<stop offset="0.2449" stop-color="#FFFEFE"/>
<stop offset="0.458333" stop-color="#F0F0F0"/>
<stop offset="0.666667" stop-color="#E6E6E6"/>
<stop offset="0.895833" stop-color="#D0D0D0"/>
</linearGradient>
</defs>
</svg>
