<svg width="94" height="94" viewBox="0 0 94 94" fill="none" xmlns="http://www.w3.org/2000/svg">
<path d="M46.857 93.7339C43.4381 93.7339 40.2254 92.4036 37.8108 89.9824L3.74151 55.9131C-1.24717 50.9244 -1.24717 42.8028 3.74151 37.8142L37.8108 3.74483C40.2254 1.33031 43.4381 0 46.857 0C50.2759 0 53.4886 1.33031 55.9031 3.74483L89.9658 37.8142C94.9545 42.8028 94.9545 50.9244 89.9658 55.9131L55.9031 89.9824C53.4886 92.4036 50.2759 93.7339 46.857 93.7339Z" fill="white"/>
<path d="M55.3707 89.4501C50.6681 94.1527 43.0387 94.1527 38.3361 89.4501L4.26674 55.3807C-0.435919 50.6781 -0.435919 43.0487 4.26674 38.3461L38.3361 4.27675C43.0387 -0.425909 50.6681 -0.425909 55.3707 4.27675L89.4401 38.3461C94.1427 43.0487 94.1427 50.6781 89.4401 55.3807L55.3707 89.4501Z" fill="url(#paint0_linear_53_12487)"/>
<mask id="path-3-outside-1_53_12487" maskUnits="userSpaceOnUse" x="25.9268" y="26.0005" width="42" height="42" fill="black">
<rect fill="white" x="25.9268" y="26.0005" width="42" height="42"/>
<path d="M66.3391 27.0005H55.0321C54.7076 27.0005 54.4446 27.2635 54.4446 27.588C54.4446 27.9124 54.7076 28.1755 55.0321 28.1755H65.7518V33.0085H63.5004V31.3479C63.5004 31.0234 63.2374 30.7604 62.9129 30.7604C62.5885 30.7604 62.3254 31.0234 62.3254 31.3479V33.0084H59.7979V31.3479C59.7979 31.0234 59.5349 30.7604 59.2104 30.7604C58.886 30.7604 58.6229 31.0234 58.6229 31.3479V33.0084H56.0955V31.3479C56.0955 31.0234 55.8324 30.7604 55.508 30.7604C55.1835 30.7604 54.9205 31.0234 54.9205 31.3479V33.0084H52.393V31.3479C52.393 31.0234 52.1299 30.7604 51.8055 30.7604C51.481 30.7604 51.218 31.0234 51.218 31.3479V33.0084H48.6905V31.3479C48.6905 31.0234 48.4274 30.7604 48.103 30.7604C47.7785 30.7604 47.5155 31.0234 47.5155 31.3479V33.0084H44.988V31.3479C44.988 31.0234 44.7249 30.7604 44.4005 30.7604C44.076 30.7604 43.813 31.0234 43.813 31.3479V33.0084H41.2855V31.3479C41.2855 31.0234 41.0224 30.7604 40.698 30.7604C40.3735 30.7604 40.1105 31.0234 40.1105 31.3479V33.0084H37.583V31.3479C37.583 31.0234 37.3199 30.7604 36.9955 30.7604C36.671 30.7604 36.408 31.0234 36.408 31.3479V33.0084H34.1097V28.1754H52.6822C53.0066 28.1754 53.2697 27.9124 53.2697 27.5879C53.2697 27.2635 53.0066 27.0005 52.6822 27.0005H27.5143C27.1898 27.0005 26.9268 27.2635 26.9268 27.588V33.596V40.4259C26.9268 40.7503 27.1898 41.0134 27.5143 41.0134C27.8387 41.0134 28.1018 40.7503 28.1018 40.4259V34.1834H32.9348V36.482H31.2742C30.9497 36.482 30.6867 36.7451 30.6867 37.0695C30.6867 37.394 30.9497 37.657 31.2742 37.657H32.9347V40.1845H31.2742C30.9497 40.1845 30.6867 40.4476 30.6867 40.772C30.6867 41.0965 30.9497 41.3595 31.2742 41.3595H32.9347V43.887H31.2742C30.9497 43.887 30.6867 44.1501 30.6867 44.4745C30.6867 44.799 30.9497 45.062 31.2742 45.062H32.9347V47.5895H31.2742C30.9497 47.5895 30.6867 47.8526 30.6867 48.177C30.6867 48.5015 30.9497 48.7645 31.2742 48.7645H32.9347V51.292H31.2742C30.9497 51.292 30.6867 51.555 30.6867 51.8795C30.6867 52.204 30.9497 52.467 31.2742 52.467H32.9347V54.9945H31.2742C30.9497 54.9945 30.6867 55.2575 30.6867 55.582C30.6867 55.9064 30.9497 56.1695 31.2742 56.1695H32.9347V58.697H31.2742C30.9497 58.697 30.6867 58.96 30.6867 59.2845C30.6867 59.6089 30.9497 59.872 31.2742 59.872H32.9347V62.3995H31.2742C30.9497 62.3995 30.6867 62.6625 30.6867 62.987C30.6867 63.3114 30.9497 63.5745 31.2742 63.5745H32.9347V65.8258H28.1017V42.7756C28.1017 42.4512 27.8386 42.1881 27.5142 42.1881C27.1897 42.1881 26.9268 42.4512 26.9268 42.7756V66.4129C26.9268 66.7374 27.1898 67.0004 27.5143 67.0004H33.5223C33.8467 67.0004 34.1098 66.7374 34.1098 66.4129V63.5741H56.3111C56.3135 63.5741 56.3158 63.5738 56.3182 63.5737C56.3351 63.5735 56.3518 63.5728 56.3685 63.5712C56.3775 63.5703 56.3865 63.5685 56.3954 63.5673C56.4053 63.5659 56.4155 63.5648 56.4253 63.5628C56.4345 63.561 56.4437 63.5583 56.4528 63.556C56.4622 63.5537 56.4717 63.5517 56.4809 63.549C56.4894 63.5464 56.4976 63.5432 56.5059 63.5402C56.5156 63.5367 56.5255 63.5337 56.5351 63.5298C56.5422 63.5268 56.549 63.5232 56.5562 63.52C56.5665 63.5152 56.577 63.5107 56.5872 63.5053C56.5935 63.5019 56.5994 63.4979 56.6057 63.4943C56.6161 63.4883 56.6266 63.4825 56.6367 63.4757C56.6436 63.4711 56.65 63.4659 56.6568 63.4609C56.6656 63.4544 56.6747 63.4483 56.6833 63.4413C56.6983 63.429 56.7128 63.4159 56.7266 63.4021L63.3284 56.8005C63.3476 56.7813 63.3647 56.7607 63.3809 56.7393C63.3839 56.7353 63.3868 56.7313 63.3897 56.7273C63.4203 56.6847 63.4449 56.6385 63.4629 56.5896C63.4649 56.5844 63.4668 56.5792 63.4686 56.5739C63.485 56.5257 63.495 56.4756 63.4985 56.4242C63.499 56.4177 63.4992 56.4112 63.4994 56.4046C63.4997 56.3981 63.5004 56.3916 63.5004 56.385V50.9696C63.5004 50.6451 63.2373 50.3821 62.9129 50.3821C62.5884 50.3821 62.3254 50.6451 62.3254 50.9696V55.7972H56.311C55.9865 55.7972 55.7235 56.0602 55.7235 56.3847V62.399H34.1097V34.1834H51.2181V34.7709C51.2181 35.0954 51.4812 35.3584 51.8056 35.3584C52.1301 35.3584 52.3931 35.0954 52.3931 34.7709V34.1834H62.3254V48.6199C62.3254 48.9444 62.5885 49.2074 62.9129 49.2074C63.2374 49.2074 63.5004 48.9444 63.5004 48.6199V34.1834H66.3393C66.6637 34.1834 66.9268 33.9204 66.9268 33.5959V27.588C66.9266 27.2635 66.6636 27.0005 66.3391 27.0005ZM32.9348 33.0085H28.1017V28.1754H32.9347V33.0085H32.9348ZM56.8985 56.9722H61.4946L56.8985 61.5683V56.9722Z"/>
</mask>
<path d="M66.3391 27.0005H55.0321C54.7076 27.0005 54.4446 27.2635 54.4446 27.588C54.4446 27.9124 54.7076 28.1755 55.0321 28.1755H65.7518V33.0085H63.5004V31.3479C63.5004 31.0234 63.2374 30.7604 62.9129 30.7604C62.5885 30.7604 62.3254 31.0234 62.3254 31.3479V33.0084H59.7979V31.3479C59.7979 31.0234 59.5349 30.7604 59.2104 30.7604C58.886 30.7604 58.6229 31.0234 58.6229 31.3479V33.0084H56.0955V31.3479C56.0955 31.0234 55.8324 30.7604 55.508 30.7604C55.1835 30.7604 54.9205 31.0234 54.9205 31.3479V33.0084H52.393V31.3479C52.393 31.0234 52.1299 30.7604 51.8055 30.7604C51.481 30.7604 51.218 31.0234 51.218 31.3479V33.0084H48.6905V31.3479C48.6905 31.0234 48.4274 30.7604 48.103 30.7604C47.7785 30.7604 47.5155 31.0234 47.5155 31.3479V33.0084H44.988V31.3479C44.988 31.0234 44.7249 30.7604 44.4005 30.7604C44.076 30.7604 43.813 31.0234 43.813 31.3479V33.0084H41.2855V31.3479C41.2855 31.0234 41.0224 30.7604 40.698 30.7604C40.3735 30.7604 40.1105 31.0234 40.1105 31.3479V33.0084H37.583V31.3479C37.583 31.0234 37.3199 30.7604 36.9955 30.7604C36.671 30.7604 36.408 31.0234 36.408 31.3479V33.0084H34.1097V28.1754H52.6822C53.0066 28.1754 53.2697 27.9124 53.2697 27.5879C53.2697 27.2635 53.0066 27.0005 52.6822 27.0005H27.5143C27.1898 27.0005 26.9268 27.2635 26.9268 27.588V33.596V40.4259C26.9268 40.7503 27.1898 41.0134 27.5143 41.0134C27.8387 41.0134 28.1018 40.7503 28.1018 40.4259V34.1834H32.9348V36.482H31.2742C30.9497 36.482 30.6867 36.7451 30.6867 37.0695C30.6867 37.394 30.9497 37.657 31.2742 37.657H32.9347V40.1845H31.2742C30.9497 40.1845 30.6867 40.4476 30.6867 40.772C30.6867 41.0965 30.9497 41.3595 31.2742 41.3595H32.9347V43.887H31.2742C30.9497 43.887 30.6867 44.1501 30.6867 44.4745C30.6867 44.799 30.9497 45.062 31.2742 45.062H32.9347V47.5895H31.2742C30.9497 47.5895 30.6867 47.8526 30.6867 48.177C30.6867 48.5015 30.9497 48.7645 31.2742 48.7645H32.9347V51.292H31.2742C30.9497 51.292 30.6867 51.555 30.6867 51.8795C30.6867 52.204 30.9497 52.467 31.2742 52.467H32.9347V54.9945H31.2742C30.9497 54.9945 30.6867 55.2575 30.6867 55.582C30.6867 55.9064 30.9497 56.1695 31.2742 56.1695H32.9347V58.697H31.2742C30.9497 58.697 30.6867 58.96 30.6867 59.2845C30.6867 59.6089 30.9497 59.872 31.2742 59.872H32.9347V62.3995H31.2742C30.9497 62.3995 30.6867 62.6625 30.6867 62.987C30.6867 63.3114 30.9497 63.5745 31.2742 63.5745H32.9347V65.8258H28.1017V42.7756C28.1017 42.4512 27.8386 42.1881 27.5142 42.1881C27.1897 42.1881 26.9268 42.4512 26.9268 42.7756V66.4129C26.9268 66.7374 27.1898 67.0004 27.5143 67.0004H33.5223C33.8467 67.0004 34.1098 66.7374 34.1098 66.4129V63.5741H56.3111C56.3135 63.5741 56.3158 63.5738 56.3182 63.5737C56.3351 63.5735 56.3518 63.5728 56.3685 63.5712C56.3775 63.5703 56.3865 63.5685 56.3954 63.5673C56.4053 63.5659 56.4155 63.5648 56.4253 63.5628C56.4345 63.561 56.4437 63.5583 56.4528 63.556C56.4622 63.5537 56.4717 63.5517 56.4809 63.549C56.4894 63.5464 56.4976 63.5432 56.5059 63.5402C56.5156 63.5367 56.5255 63.5337 56.5351 63.5298C56.5422 63.5268 56.549 63.5232 56.5562 63.52C56.5665 63.5152 56.577 63.5107 56.5872 63.5053C56.5935 63.5019 56.5994 63.4979 56.6057 63.4943C56.6161 63.4883 56.6266 63.4825 56.6367 63.4757C56.6436 63.4711 56.65 63.4659 56.6568 63.4609C56.6656 63.4544 56.6747 63.4483 56.6833 63.4413C56.6983 63.429 56.7128 63.4159 56.7266 63.4021L63.3284 56.8005C63.3476 56.7813 63.3647 56.7607 63.3809 56.7393C63.3839 56.7353 63.3868 56.7313 63.3897 56.7273C63.4203 56.6847 63.4449 56.6385 63.4629 56.5896C63.4649 56.5844 63.4668 56.5792 63.4686 56.5739C63.485 56.5257 63.495 56.4756 63.4985 56.4242C63.499 56.4177 63.4992 56.4112 63.4994 56.4046C63.4997 56.3981 63.5004 56.3916 63.5004 56.385V50.9696C63.5004 50.6451 63.2373 50.3821 62.9129 50.3821C62.5884 50.3821 62.3254 50.6451 62.3254 50.9696V55.7972H56.311C55.9865 55.7972 55.7235 56.0602 55.7235 56.3847V62.399H34.1097V34.1834H51.2181V34.7709C51.2181 35.0954 51.4812 35.3584 51.8056 35.3584C52.1301 35.3584 52.3931 35.0954 52.3931 34.7709V34.1834H62.3254V48.6199C62.3254 48.9444 62.5885 49.2074 62.9129 49.2074C63.2374 49.2074 63.5004 48.9444 63.5004 48.6199V34.1834H66.3393C66.6637 34.1834 66.9268 33.9204 66.9268 33.5959V27.588C66.9266 27.2635 66.6636 27.0005 66.3391 27.0005ZM32.9348 33.0085H28.1017V28.1754H32.9347V33.0085H32.9348ZM56.8985 56.9722H61.4946L56.8985 61.5683V56.9722Z" fill="#165E83"/>
<path d="M66.3391 27.0005H55.0321C54.7076 27.0005 54.4446 27.2635 54.4446 27.588C54.4446 27.9124 54.7076 28.1755 55.0321 28.1755H65.7518V33.0085H63.5004V31.3479C63.5004 31.0234 63.2374 30.7604 62.9129 30.7604C62.5885 30.7604 62.3254 31.0234 62.3254 31.3479V33.0084H59.7979V31.3479C59.7979 31.0234 59.5349 30.7604 59.2104 30.7604C58.886 30.7604 58.6229 31.0234 58.6229 31.3479V33.0084H56.0955V31.3479C56.0955 31.0234 55.8324 30.7604 55.508 30.7604C55.1835 30.7604 54.9205 31.0234 54.9205 31.3479V33.0084H52.393V31.3479C52.393 31.0234 52.1299 30.7604 51.8055 30.7604C51.481 30.7604 51.218 31.0234 51.218 31.3479V33.0084H48.6905V31.3479C48.6905 31.0234 48.4274 30.7604 48.103 30.7604C47.7785 30.7604 47.5155 31.0234 47.5155 31.3479V33.0084H44.988V31.3479C44.988 31.0234 44.7249 30.7604 44.4005 30.7604C44.076 30.7604 43.813 31.0234 43.813 31.3479V33.0084H41.2855V31.3479C41.2855 31.0234 41.0224 30.7604 40.698 30.7604C40.3735 30.7604 40.1105 31.0234 40.1105 31.3479V33.0084H37.583V31.3479C37.583 31.0234 37.3199 30.7604 36.9955 30.7604C36.671 30.7604 36.408 31.0234 36.408 31.3479V33.0084H34.1097V28.1754H52.6822C53.0066 28.1754 53.2697 27.9124 53.2697 27.5879C53.2697 27.2635 53.0066 27.0005 52.6822 27.0005H27.5143C27.1898 27.0005 26.9268 27.2635 26.9268 27.588V33.596V40.4259C26.9268 40.7503 27.1898 41.0134 27.5143 41.0134C27.8387 41.0134 28.1018 40.7503 28.1018 40.4259V34.1834H32.9348V36.482H31.2742C30.9497 36.482 30.6867 36.7451 30.6867 37.0695C30.6867 37.394 30.9497 37.657 31.2742 37.657H32.9347V40.1845H31.2742C30.9497 40.1845 30.6867 40.4476 30.6867 40.772C30.6867 41.0965 30.9497 41.3595 31.2742 41.3595H32.9347V43.887H31.2742C30.9497 43.887 30.6867 44.1501 30.6867 44.4745C30.6867 44.799 30.9497 45.062 31.2742 45.062H32.9347V47.5895H31.2742C30.9497 47.5895 30.6867 47.8526 30.6867 48.177C30.6867 48.5015 30.9497 48.7645 31.2742 48.7645H32.9347V51.292H31.2742C30.9497 51.292 30.6867 51.555 30.6867 51.8795C30.6867 52.204 30.9497 52.467 31.2742 52.467H32.9347V54.9945H31.2742C30.9497 54.9945 30.6867 55.2575 30.6867 55.582C30.6867 55.9064 30.9497 56.1695 31.2742 56.1695H32.9347V58.697H31.2742C30.9497 58.697 30.6867 58.96 30.6867 59.2845C30.6867 59.6089 30.9497 59.872 31.2742 59.872H32.9347V62.3995H31.2742C30.9497 62.3995 30.6867 62.6625 30.6867 62.987C30.6867 63.3114 30.9497 63.5745 31.2742 63.5745H32.9347V65.8258H28.1017V42.7756C28.1017 42.4512 27.8386 42.1881 27.5142 42.1881C27.1897 42.1881 26.9268 42.4512 26.9268 42.7756V66.4129C26.9268 66.7374 27.1898 67.0004 27.5143 67.0004H33.5223C33.8467 67.0004 34.1098 66.7374 34.1098 66.4129V63.5741H56.3111C56.3135 63.5741 56.3158 63.5738 56.3182 63.5737C56.3351 63.5735 56.3518 63.5728 56.3685 63.5712C56.3775 63.5703 56.3865 63.5685 56.3954 63.5673C56.4053 63.5659 56.4155 63.5648 56.4253 63.5628C56.4345 63.561 56.4437 63.5583 56.4528 63.556C56.4622 63.5537 56.4717 63.5517 56.4809 63.549C56.4894 63.5464 56.4976 63.5432 56.5059 63.5402C56.5156 63.5367 56.5255 63.5337 56.5351 63.5298C56.5422 63.5268 56.549 63.5232 56.5562 63.52C56.5665 63.5152 56.577 63.5107 56.5872 63.5053C56.5935 63.5019 56.5994 63.4979 56.6057 63.4943C56.6161 63.4883 56.6266 63.4825 56.6367 63.4757C56.6436 63.4711 56.65 63.4659 56.6568 63.4609C56.6656 63.4544 56.6747 63.4483 56.6833 63.4413C56.6983 63.429 56.7128 63.4159 56.7266 63.4021L63.3284 56.8005C63.3476 56.7813 63.3647 56.7607 63.3809 56.7393C63.3839 56.7353 63.3868 56.7313 63.3897 56.7273C63.4203 56.6847 63.4449 56.6385 63.4629 56.5896C63.4649 56.5844 63.4668 56.5792 63.4686 56.5739C63.485 56.5257 63.495 56.4756 63.4985 56.4242C63.499 56.4177 63.4992 56.4112 63.4994 56.4046C63.4997 56.3981 63.5004 56.3916 63.5004 56.385V50.9696C63.5004 50.6451 63.2373 50.3821 62.9129 50.3821C62.5884 50.3821 62.3254 50.6451 62.3254 50.9696V55.7972H56.311C55.9865 55.7972 55.7235 56.0602 55.7235 56.3847V62.399H34.1097V34.1834H51.2181V34.7709C51.2181 35.0954 51.4812 35.3584 51.8056 35.3584C52.1301 35.3584 52.3931 35.0954 52.3931 34.7709V34.1834H62.3254V48.6199C62.3254 48.9444 62.5885 49.2074 62.9129 49.2074C63.2374 49.2074 63.5004 48.9444 63.5004 48.6199V34.1834H66.3393C66.6637 34.1834 66.9268 33.9204 66.9268 33.5959V27.588C66.9266 27.2635 66.6636 27.0005 66.3391 27.0005ZM32.9348 33.0085H28.1017V28.1754H32.9347V33.0085H32.9348ZM56.8985 56.9722H61.4946L56.8985 61.5683V56.9722Z" stroke="#165E83" stroke-width="0.8" mask="url(#path-3-outside-1_53_12487)"/>
<path d="M51.8058 49.6494C51.3709 49.6494 51.0183 50.002 51.0183 50.4369V51.6118C51.0183 52.0467 51.3709 52.3993 51.8058 52.3993C52.2407 52.3993 52.5933 52.0467 52.5933 51.6118V50.4369C52.5933 50.0019 52.2407 49.6494 51.8058 49.6494Z" fill="#165E83" stroke="#165E83" stroke-width="0.4"/>
<path d="M51.8058 46.281C51.3709 46.281 51.0183 46.6335 51.0183 47.0685V48.2434C51.0183 48.6783 51.3709 49.0309 51.8058 49.0309C52.2407 49.0309 52.5933 48.6783 52.5933 48.2434V47.0685C52.5933 46.6335 52.2407 46.281 51.8058 46.281Z" fill="#165E83" stroke="#165E83" stroke-width="0.4"/>
<path d="M46.512 51.092H45.337C44.9021 51.092 44.5495 51.4446 44.5495 51.8795C44.5495 52.3144 44.9021 52.667 45.337 52.667H46.5119C46.9468 52.667 47.2994 52.3144 47.2994 51.8795C47.2994 51.4446 46.9469 51.092 46.512 51.092Z" fill="#165E83" stroke="#165E83" stroke-width="0.4"/>
<path d="M36.4074 51.092H35.2325C34.7976 51.092 34.445 51.4446 34.445 51.8795C34.445 52.3144 34.7976 52.667 35.2325 52.667H36.4074C36.8423 52.667 37.1949 52.3144 37.1949 51.8795C37.1949 51.4446 36.8423 51.092 36.4074 51.092Z" fill="#165E83" stroke="#165E83" stroke-width="0.4"/>
<path d="M39.7756 51.092H38.6007C38.1658 51.092 37.8132 51.4446 37.8132 51.8795C37.8132 52.3144 38.1658 52.667 38.6007 52.667H39.7756C40.2105 52.667 40.5631 52.3144 40.5631 51.8795C40.5631 51.4446 40.2105 51.092 39.7756 51.092Z" fill="#165E83" stroke="#165E83" stroke-width="0.4"/>
<path d="M43.1438 51.092H41.9688C41.5339 51.092 41.1813 51.4446 41.1813 51.8795C41.1813 52.3144 41.5339 52.667 41.9688 52.667H43.1438C43.5787 52.667 43.9313 52.3144 43.9313 51.8795C43.9313 51.4446 43.5787 51.092 43.1438 51.092Z" fill="#165E83" stroke="#165E83" stroke-width="0.4"/>
<path d="M49.8801 51.092H48.7052C48.2703 51.092 47.9177 51.4446 47.9177 51.8795C47.9177 52.3144 48.2703 52.667 48.7052 52.667H49.8801C50.315 52.667 50.6676 52.3144 50.6676 51.8795C50.6676 51.4446 50.315 51.092 49.8801 51.092Z" fill="#165E83" stroke="#165E83" stroke-width="0.4"/>
<path d="M51.8058 42.913C51.3709 42.913 51.0183 43.2656 51.0183 43.7005V44.8755C51.0183 45.3104 51.3709 45.663 51.8058 45.663C52.2407 45.663 52.5933 45.3104 52.5933 44.8755V43.7005C52.5933 43.2656 52.2407 42.913 51.8058 42.913Z" fill="#165E83" stroke="#165E83" stroke-width="0.4"/>
<path d="M51.8058 36.1767C51.3709 36.1767 51.0183 36.5293 51.0183 36.9642V38.1391C51.0183 38.574 51.3709 38.9266 51.8058 38.9266C52.2407 38.9266 52.5933 38.574 52.5933 38.1391V36.9642C52.5933 36.5293 52.2407 36.1767 51.8058 36.1767Z" fill="#165E83" stroke="#165E83" stroke-width="0.4"/>
<path d="M51.8058 39.5449C51.3709 39.5449 51.0183 39.8975 51.0183 40.3324V41.5073C51.0183 41.9422 51.3709 42.2948 51.8058 42.2948C52.2407 42.2948 52.5933 41.9422 52.5933 41.5073V40.3324C52.5933 39.8975 52.2407 39.5449 51.8058 39.5449Z" fill="#165E83" stroke="#165E83" stroke-width="0.4"/>
<defs>
<linearGradient id="paint0_linear_53_12487" x1="30.7251" y1="63.7468" x2="75.0009" y2="17.413" gradientUnits="userSpaceOnUse">
<stop offset="0.2449" stop-color="#FFFEFE"/>
<stop offset="0.458333" stop-color="#F0F0F0"/>
<stop offset="0.666667" stop-color="#E6E6E6"/>
<stop offset="0.895833" stop-color="#D0D0D0"/>
</linearGradient>
</defs>
</svg>
