<svg width="94" height="94" viewBox="0 0 94 94" fill="none" xmlns="http://www.w3.org/2000/svg">
<path d="M46.857 93.7339C43.4381 93.7339 40.2254 92.4036 37.8108 89.9824L3.74151 55.9131C-1.24717 50.9244 -1.24717 42.8028 3.74151 37.8142L37.8108 3.74483C40.2254 1.33031 43.4381 0 46.857 0C50.2759 0 53.4886 1.33031 55.9031 3.74483L89.9658 37.8142C94.9545 42.8028 94.9545 50.9244 89.9658 55.9131L55.9031 89.9824C53.4886 92.4036 50.2759 93.7339 46.857 93.7339Z" fill="white"/>
<path d="M55.3707 89.4501C50.6681 94.1527 43.0387 94.1527 38.3361 89.4501L4.26674 55.3807C-0.435919 50.6781 -0.435919 43.0487 4.26674 38.3461L38.3361 4.27675C43.0387 -0.425909 50.6681 -0.425909 55.3707 4.27675L89.4401 38.3461C94.1427 43.0487 94.1427 50.6781 89.4401 55.3807L55.3707 89.4501Z" fill="url(#paint0_linear_53_12525)"/>
<path d="M30.8061 28.5198L30.8061 28.5198L26.8535 39.1618H26.5324C25.6046 39.1618 24.85 39.9163 24.85 40.8441V42.0753C24.85 43.0031 25.6046 43.7577 26.5324 43.7577H26.6089V57.9189C26.6089 58.3623 26.9683 58.7218 27.4118 58.7218C27.8553 58.7218 28.2147 58.3623 28.2147 57.9189V43.7577H38.3165C38.93 43.7577 39.5075 43.5185 39.9414 43.0846L47.2864 35.7394L54.6316 43.0846C55.0654 43.5184 55.643 43.7576 56.2565 43.7576H66.3582V45.3386C66.3582 45.782 66.7176 46.1415 67.1612 46.1415C67.6047 46.1415 67.9641 45.782 67.9641 45.3386V43.7576H68.0406C68.9683 43.7576 69.723 43.003 69.723 42.0752V40.8441C69.7229 39.9163 68.9683 39.1618 68.0405 39.1618H67.7194L63.7667 28.5198C63.3956 27.5208 62.431 26.85 61.3652 26.85H33.2076C32.1419 26.85 31.1772 27.5208 30.8061 28.5198ZM68.1172 41.9253H68.117V42.0753C68.117 42.1174 68.0826 42.1518 68.0405 42.1518H56.2565C56.0713 42.1518 55.8979 42.08 55.7671 41.9492L55.7671 41.9491L47.8542 34.0362C47.7036 33.8856 47.4994 33.801 47.2864 33.801C47.0733 33.801 46.8693 33.8856 46.7186 34.0362L46.7185 34.0362L38.8057 41.9491C38.6748 42.08 38.5014 42.1518 38.3162 42.1518H26.5324C26.4903 42.1518 26.4558 42.1174 26.4558 42.0753V40.8441C26.4558 40.8021 26.4903 40.7676 26.5324 40.7676H37.6972C37.9101 40.7676 38.1143 40.683 38.265 40.5325L38.265 40.5324L46.7972 32.0003L46.7973 32.0003C46.9281 31.8694 47.1013 31.7976 47.2865 31.7976C47.4717 31.7976 47.645 31.8694 47.7758 32.0003L47.7758 32.0003L56.3081 40.5324C56.4587 40.6831 56.6629 40.7676 56.8759 40.7676H68.0407C68.0828 40.7676 68.1172 40.8021 68.1172 40.8441V41.9253ZM32.3114 29.0789C32.3115 29.0789 32.3115 29.0789 32.3115 29.0789C32.4498 28.7065 32.8104 28.4558 33.2076 28.4558H61.3652C61.7624 28.4558 62.123 28.7066 62.2614 29.0789L66.0064 39.1618H57.2083L48.9113 30.8648C48.4775 30.431 47.9 30.1917 47.2864 30.1917C46.6729 30.1917 46.0954 30.4309 45.6616 30.8648C45.6616 30.8648 45.6616 30.8648 45.6616 30.8649L37.3646 39.1618H28.5664L32.3114 29.0789Z" fill="#165E83" stroke="#165E83" stroke-width="0.3"/>
<path d="M64.2591 61.8739C64.7026 61.8739 65.062 61.5143 65.062 61.0709V49.4627C65.062 49.0193 64.7026 48.6598 64.2591 48.6598H55.4649C55.0214 48.6598 54.662 49.0193 54.662 49.4627V61.0709C54.662 61.5143 55.0214 61.8739 55.4649 61.8739H64.2591ZM63.4562 57.4539H60.6649V54.6627H63.4562V57.4539ZM59.0591 57.4539H56.2679V54.6627H59.0591V57.4539ZM63.4562 60.268H56.2679V59.0598H63.4562V60.268ZM63.4562 53.0568H60.6649V50.2656H63.4562V53.0568ZM59.0591 50.2657V53.0569H56.2679V50.2657H59.0591Z" fill="#165E83" stroke="#165E83" stroke-width="0.3"/>
<path d="M39.1077 61.8739C39.5513 61.8739 39.9107 61.5143 39.9107 61.0709V49.4627C39.9107 49.0193 39.5513 48.6598 39.1077 48.6598H30.3136C29.87 48.6598 29.5106 49.0193 29.5106 49.4627V61.0709C29.5106 61.5143 29.87 61.8739 30.3136 61.8739H39.1077ZM38.3048 57.4539H35.5136V54.6627H38.3048V57.4539ZM33.9078 57.4539H31.1165V54.6627H33.9078V57.4539ZM38.3048 60.268H31.1165V59.0598H38.3048V60.268ZM38.3048 53.0568H35.5136V50.2656H38.3048V53.0568ZM33.9078 50.2657V53.0569H31.1165V50.2657H33.9078Z" fill="#165E83" stroke="#165E83" stroke-width="0.3"/>
<path d="M49.3971 51.4735H45.1759C44.7323 51.4735 44.3729 51.833 44.3729 52.2765V55.0906C44.3729 55.534 44.7323 55.8935 45.1759 55.8935H49.3971C49.8406 55.8935 50.2 55.534 50.2 55.0906V52.2765C50.2 51.833 49.8406 51.4735 49.3971 51.4735ZM48.5941 54.2876H45.9788V53.0794H48.5941V54.2876Z" fill="#165E83" stroke="#165E83" stroke-width="0.3"/>
<path d="M50.9034 43.3945C50.9034 41.4 49.281 39.7775 47.2864 39.7775C45.2918 39.7775 43.6693 41.4 43.6693 43.3945C43.6693 45.389 45.2917 47.0116 47.2864 47.0116C49.281 47.0116 50.9034 45.3891 50.9034 43.3945ZM45.2752 43.3945C45.2752 42.2857 46.1776 41.3833 47.2864 41.3833C48.3951 41.3833 49.2975 42.2857 49.2975 43.3945C49.2975 44.5033 48.3951 45.4058 47.2864 45.4058C46.1776 45.4058 45.2752 44.5034 45.2752 43.3945Z" fill="#165E83" stroke="#165E83" stroke-width="0.3"/>
<path d="M68.92 62.5544H67.9641V48.3932C67.9641 47.9497 67.6047 47.5902 67.1612 47.5902C66.7176 47.5902 66.3582 47.9497 66.3582 48.3932V62.5544H53.0141V49.4626C53.0141 49.0192 52.6547 48.6597 52.2111 48.6597H42.3618C41.9182 48.6597 41.5588 49.0192 41.5588 49.4626V62.5544H28.2146V60.9733C28.2146 60.5299 27.8553 60.1704 27.4117 60.1704C26.9682 60.1704 26.6088 60.5299 26.6088 60.9733V62.5544H25.6529C25.2094 62.5544 24.85 62.9139 24.85 63.3573V66.3473C24.85 66.7907 25.2094 67.1503 25.6529 67.1503H68.92C69.3635 67.1503 69.7229 66.7907 69.7229 66.3473V63.3573C69.7229 62.9139 69.3635 62.5544 68.92 62.5544ZM43.1647 58.0923H43.9448C44.3883 58.0923 44.7477 57.7328 44.7477 57.2894C44.7477 56.846 44.3883 56.4864 43.9448 56.4864H43.1647V50.2656H51.4083V62.5544H43.1647V58.0923ZM68.117 65.5444H26.4558V64.1602H68.117V65.5444Z" fill="#165E83" stroke="#165E83" stroke-width="0.3"/>
<defs>
<linearGradient id="paint0_linear_53_12525" x1="30.7251" y1="63.7468" x2="75.0009" y2="17.413" gradientUnits="userSpaceOnUse">
<stop offset="0.2449" stop-color="#FFFEFE"/>
<stop offset="0.458333" stop-color="#F0F0F0"/>
<stop offset="0.666667" stop-color="#E6E6E6"/>
<stop offset="0.895833" stop-color="#D0D0D0"/>
</linearGradient>
</defs>
</svg>
