<svg width="92" height="92" viewBox="0 0 92 92" fill="none" xmlns="http://www.w3.org/2000/svg">
<g filter="url(#filter0_d_469_0)">
<circle cx="45.9999" cy="46" r="35.1322" transform="rotate(8.61804 45.9999 46)" fill="white" fill-opacity="0.2"/>
</g>
<path d="M57.8929 47.6722L57.8931 47.6724L58.4346 47.6959L58.4347 47.8959C58.4348 47.8959 58.4349 47.8959 58.435 47.8959C58.6374 47.8958 58.8315 47.8155 58.9748 47.6726C59.2742 47.3741 59.275 46.8895 58.9766 46.5902L58.9763 46.5899L46.5384 34.152L46.5384 34.152C46.2395 33.8532 45.755 33.8532 45.4562 34.152L45.4562 34.152L33.0182 46.59L33.0182 46.59L33.0158 46.5925C32.7294 46.889 32.7294 47.3592 33.0158 47.6558L33.0158 47.6559C33.3095 47.9599 33.794 47.9684 34.0981 47.6746L34.0981 47.6747L34.1005 47.6722L45.9967 35.7749L57.8929 47.6722Z" fill="white" stroke="white" stroke-width="0.4"/>
<path d="M33.0158 57.8316C33.3095 58.1357 33.7941 58.1441 34.0981 57.8504L34.0981 57.8504L34.1006 57.848L45.9968 45.9507L57.893 57.848L57.8931 57.8481L58.4347 57.8717L58.4348 58.0717C58.4349 58.0717 58.4349 58.0717 58.435 58.0717C58.6374 58.0715 58.8315 57.9913 58.9749 57.8483C59.2742 57.5499 59.275 57.0653 58.9766 56.7659L58.9764 56.7657L46.5385 44.3278L46.5384 44.3278C46.2395 44.029 45.7551 44.029 45.4562 44.3278L45.4562 44.3278L33.0183 56.7657L33.0183 56.7657L33.0159 56.7682C32.7294 57.0648 32.7294 57.535 33.0158 57.8316ZM33.0158 57.8316L33.1597 57.6927L33.0159 57.8316C33.0158 57.8316 33.0158 57.8316 33.0158 57.8316Z" fill="white" stroke="white" stroke-width="0.4"/>
<defs>
<filter id="filter0_d_469_0" x="0.862793" y="0.862793" width="90.2744" height="90.2744" filterUnits="userSpaceOnUse" color-interpolation-filters="sRGB">
<feFlood flood-opacity="0" result="BackgroundImageFix"/>
<feColorMatrix in="SourceAlpha" type="matrix" values="0 0 0 0 0 0 0 0 0 0 0 0 0 0 0 0 0 0 127 0" result="hardAlpha"/>
<feOffset/>
<feGaussianBlur stdDeviation="5"/>
<feColorMatrix type="matrix" values="0 0 0 0 0 0 0 0 0 0 0 0 0 0 0 0 0 0 0.1 0"/>
<feBlend mode="normal" in2="BackgroundImageFix" result="effect1_dropShadow_469_0"/>
<feBlend mode="normal" in="SourceGraphic" in2="effect1_dropShadow_469_0" result="shape"/>
</filter>
</defs>
</svg>
