<svg width="31" height="31" viewBox="0 0 31 31" fill="none" xmlns="http://www.w3.org/2000/svg">
<path d="M11.625 15.5C11.625 17.6401 13.3599 19.375 15.5 19.375C17.6401 19.375 19.375 17.6401 19.375 15.5C19.375 13.3599 17.6401 11.625 15.5 11.625C13.3599 11.625 11.625 13.3599 11.625 15.5Z" fill="#FDFDFD"/>
<path d="M0 3.87499C0 6.01509 1.73489 7.74998 3.87499 7.74998C6.01509 7.74998 7.74998 6.01509 7.74998 3.87499C7.74998 1.73489 6.01509 0 3.87499 0C1.73489 0 0 1.73489 0 3.87499Z" fill="white"/>
<path d="M11.625 27.125C11.625 29.2651 13.3599 31 15.5 31C17.6401 31 19.375 29.2651 19.375 27.125C19.375 24.9849 17.6401 23.25 15.5 23.25C13.3599 23.25 11.625 24.9849 11.625 27.125Z" fill="#FDFDFD"/>
<path d="M0 15.5C0 17.6401 1.73489 19.375 3.87499 19.375C6.01508 19.375 7.74998 17.6401 7.74998 15.5C7.74998 13.3599 6.01508 11.625 3.87499 11.625C1.73489 11.625 0 13.3599 0 15.5Z" fill="white"/>
<path d="M0 27.125C0 29.2651 1.73489 31 3.87499 31C6.01509 31 7.74998 29.2651 7.74998 27.125C7.74998 24.9849 6.01509 23.25 3.87499 23.25C1.73489 23.25 0 24.9849 0 27.125Z" fill="white"/>
<path d="M23.25 3.87499C23.25 6.01509 24.9849 7.74998 27.125 7.74998C29.2651 7.74998 31 6.01509 31 3.87499C31 1.73489 29.2651 0 27.125 0C24.9849 0 23.25 1.73489 23.25 3.87499Z" fill="#FDFDFD"/>
<path d="M11.625 3.87499C11.625 6.01508 13.3599 7.74998 15.5 7.74998C17.6401 7.74998 19.375 6.01508 19.375 3.87499C19.375 1.73489 17.6401 0 15.5 0C13.3599 0 11.625 1.73489 11.625 3.87499Z" fill="white"/>
<path d="M23.25 15.5C23.25 17.6401 24.9849 19.375 27.125 19.375C29.2651 19.375 31 17.6401 31 15.5C31 13.3599 29.2651 11.625 27.125 11.625C24.9849 11.625 23.25 13.3599 23.25 15.5Z" fill="white"/>
<path d="M23.25 27.125C23.25 29.2651 24.9849 31 27.125 31C29.2651 31 31 29.2651 31 27.125C31 24.9849 29.2651 23.25 27.125 23.25C24.9849 23.25 23.25 24.9849 23.25 27.125Z" fill="white"/>
</svg>
