<svg width="31" height="33" viewBox="0 0 31 33" fill="none" xmlns="http://www.w3.org/2000/svg">
<g clip-path="url(#clip0_53_12336)">
<path d="M19.4648 16.9075V16.3069C19.4648 14.2581 17.8039 12.5972 15.7551 12.5972C13.7063 12.5972 12.0454 14.2581 12.0454 16.3069V16.9075C12.0454 18.9563 13.7063 20.6172 15.7551 20.6172C17.8039 20.6172 19.4648 18.9563 19.4648 16.9075Z" fill="#202332"/>
<path d="M8.33544 4.8774V4.27679C8.33544 2.22797 6.67454 0.567078 4.62573 0.567078C2.57691 0.567078 0.916016 2.22797 0.916016 4.27679V4.8774C0.916016 6.92622 2.57691 8.58711 4.62573 8.58711C6.67454 8.58711 8.33544 6.92622 8.33544 4.8774Z" fill="#165E83"/>
<path d="M19.4648 28.9376V28.337C19.4648 26.2882 17.8039 24.6273 15.7551 24.6273C13.7063 24.6273 12.0454 26.2882 12.0454 28.337V28.9376C12.0454 30.9864 13.7063 32.6473 15.7551 32.6473C17.8039 32.6473 19.4648 30.9864 19.4648 28.9376Z" fill="#797A7E"/>
<path d="M8.33544 16.9075V16.3069C8.33544 14.2581 6.67454 12.5972 4.62573 12.5972C2.57691 12.5972 0.916016 14.2581 0.916016 16.3069V16.9075C0.916016 18.9563 2.57691 20.6172 4.62573 20.6172C6.67454 20.6172 8.33544 18.9563 8.33544 16.9075Z" fill="#202332"/>
<path d="M8.33544 28.9376V28.337C8.33544 26.2882 6.67454 24.6273 4.62573 24.6273C2.57691 24.6273 0.916016 26.2882 0.916016 28.337V28.9376C0.916016 30.9864 2.57691 32.6473 4.62573 32.6473C6.67454 32.6473 8.33544 30.9864 8.33544 28.9376Z" fill="#165E83"/>
<path d="M30.5937 4.8774V4.27679C30.5937 2.22797 28.9328 0.567078 26.884 0.567078C24.8352 0.567078 23.1743 2.22797 23.1743 4.27679V4.8774C23.1743 6.92622 24.8352 8.58711 26.884 8.58711C28.9328 8.58711 30.5937 6.92622 30.5937 4.8774Z" fill="#797A7E"/>
<path d="M19.4648 4.8774V4.27679C19.4648 2.22797 17.8039 0.567078 15.7551 0.567078C13.7063 0.567078 12.0454 2.22797 12.0454 4.27679V4.8774C12.0454 6.92622 13.7063 8.58711 15.7551 8.58711C17.8039 8.58711 19.4648 6.92622 19.4648 4.8774Z" fill="#165E83"/>
<path d="M30.5937 16.9075V16.3069C30.5937 14.2581 28.9328 12.5972 26.884 12.5972C24.8352 12.5972 23.1743 14.2581 23.1743 16.3069V16.9075C23.1743 18.9563 24.8352 20.6172 26.884 20.6172C28.9328 20.6172 30.5937 18.9563 30.5937 16.9075Z" fill="#202332"/>
<path d="M30.5937 28.9376V28.337C30.5937 26.2882 28.9328 24.6273 26.884 24.6273C24.8352 24.6273 23.1743 26.2882 23.1743 28.337V28.9376C23.1743 30.9864 24.8352 32.6473 26.884 32.6473C28.9328 32.6473 30.5937 30.9864 30.5937 28.9376Z" fill="#165E83"/>
</g>
<defs>
<clipPath id="clip0_53_12336">
<rect x="0.916016" y="0.567078" width="29.6778" height="32.0802" fill="white"/>
</clipPath>
</defs>
</svg>
