<svg width="20" height="19" viewBox="0 0 20 19" fill="none" xmlns="http://www.w3.org/2000/svg">
<g clip-path="url(#clip0_53_17522)">
<path d="M16.5271 12.2854C15.4924 11.2507 14.2608 10.4847 12.9171 10.0211C14.3562 9.02982 15.3018 7.37092 15.3018 5.49512C15.3018 2.46673 12.838 0.00292969 9.80957 0.00292969C6.78119 0.00292969 4.31738 2.46673 4.31738 5.49512C4.31738 7.37092 5.26289 9.02982 6.70211 10.0211C5.35837 10.4847 4.12679 11.2507 3.09207 12.2854C1.29776 14.0797 0.30957 16.4654 0.30957 19.0029H1.79395C1.79395 14.5831 5.38973 10.9873 9.80957 10.9873C14.2294 10.9873 17.8252 14.5831 17.8252 19.0029H19.3096C19.3096 16.4654 18.3214 14.0797 16.5271 12.2854ZM9.80957 9.50293C7.59967 9.50293 5.80176 7.70505 5.80176 5.49512C5.80176 3.28518 7.59967 1.4873 9.80957 1.4873C12.0195 1.4873 13.8174 3.28518 13.8174 5.49512C13.8174 7.70505 12.0195 9.50293 9.80957 9.50293Z" fill="#202332"/>
</g>
<defs>
<clipPath id="clip0_53_17522">
<rect width="19" height="19" fill="white" transform="translate(0.30957 0.00292969)"/>
</clipPath>
</defs>
</svg>
