<svg width="21" height="21" viewBox="0 0 21 21" fill="none" xmlns="http://www.w3.org/2000/svg">
<path d="M6.56997 2.40306L6.57 2.4031L8.50323 4.7099C8.50324 4.70991 8.50325 4.70991 8.50325 4.70992C9.08653 5.40555 9.08196 6.38972 8.47365 6.99649L6.56997 2.40306ZM6.56997 2.40306C5.39165 0.998352 4.3583 0.814607 3.68224 0.927737L6.56997 2.40306ZM1.71799 2.77655L1.71799 2.77654C2.10963 1.75606 2.82076 1.07187 3.68224 0.927737L1.71799 2.77655ZM1.71799 2.77655C1.05171 4.51273 0.789622 6.047 0.942143 7.39504C1.09492 8.74538 1.66311 9.90273 2.64585 10.883L2.64587 10.883M1.71799 2.77655L2.64587 10.883M2.64587 10.883L4.83995 13.07L4.83996 13.07M2.64587 10.883L4.83996 13.07M4.83996 13.07C5.03259 13.262 5.34447 13.2615 5.53656 13.0689L5.53658 13.0689M4.83996 13.07L5.53658 13.0689M5.53658 13.0689C5.72862 12.8762 5.7281 12.5643 5.53547 12.3723L5.53546 12.3723M5.53658 13.0689L5.53546 12.3723M5.53546 12.3723L3.34146 10.1854C2.49982 9.34587 2.02426 8.37051 1.907 7.21462C1.78946 6.05589 2.03141 4.70926 2.63762 3.12945C2.90805 2.42491 3.36679 1.97928 3.84468 1.89931C4.40899 1.80497 5.08984 2.1715 5.81501 3.03597L7.74817 5.34266L7.74819 5.34268M5.53546 12.3723L7.74819 5.34268M7.74819 5.34268C7.98218 5.62174 8.04586 6.03158 7.77744 6.2993L7.77735 6.29939M7.74819 5.34268L7.77735 6.29939M7.77735 6.29939L7.19741 6.87927C6.87239 7.10303 6.70818 7.46969 6.72334 7.90608C6.74295 8.47016 7.05258 9.11789 7.40785 9.686C7.76552 10.2579 8.17996 10.7654 8.428 11.0524C9.4311 12.213 10.6369 13.2189 11.6575 13.7411C12.6289 14.2381 13.4413 14.3178 14.0417 13.9156L14.0418 13.9156M7.77735 6.29939L14.0418 13.9156M14.0418 13.9156C14.0681 13.8979 14.0925 13.8778 14.115 13.8556L14.115 13.8555M14.0418 13.9156L14.115 13.8555M14.115 13.8555L14.7332 13.2404L14.7333 13.2403M14.115 13.8555L14.7333 13.2403M14.7333 13.2403C15.0025 12.9719 15.415 13.0357 15.6957 13.2698L15.6957 13.2699M14.7333 13.2403L15.6957 13.2699M15.6957 13.2699L18.0083 15.1981C18.874 15.92 19.2412 16.5976 19.1477 17.159C19.0682 17.6358 18.6215 18.094 17.9141 18.3641M15.6957 13.2699L6.84784 13.6828L10.8371 17.6618C11.679 18.5016 12.6573 18.9762 13.8167 19.0932C14.979 19.2105 16.3297 18.969 17.9141 18.3641M18.2299 19.191L18.2656 19.2845C16.8463 19.8263 15.5615 20.0999 14.4033 20.1C12.7178 20.1001 11.3058 19.5207 10.1414 18.3593L6.15218 14.3802C5.95955 14.1881 5.95916 13.8763 6.15123 13.6837C6.15124 13.6837 6.15125 13.6837 6.15126 13.6837L6.22206 13.7543L18.2299 19.191ZM18.2299 19.191L18.2656 19.2845C19.2896 18.8934 19.9759 18.1827 20.1195 17.321L20.0209 17.3045L20.1195 17.321C20.2319 16.646 20.0467 15.6152 18.6392 14.4415L18.5752 14.5183L18.6392 14.4415L16.3268 12.5134C15.6303 11.9324 14.6452 11.9369 14.038 12.5426L13.4606 13.1172C13.3405 13.1826 13.1673 13.204 12.9391 13.1658C12.7054 13.1268 12.4244 13.027 12.1064 12.8642C11.0919 12.3452 9.9986 11.3739 9.15275 10.3858C8.73041 9.89236 8.37211 9.39746 8.11752 8.95635C7.86074 8.51143 7.71707 8.134 7.70795 7.87197L18.2299 19.191ZM17.9141 18.3641L17.9498 18.4575L17.9141 18.3641C17.9141 18.3641 17.9141 18.3641 17.9141 18.3641ZM7.85758 7.61247L8.47357 6.99658L7.85757 7.61247C7.85757 7.61247 7.85758 7.61247 7.85758 7.61247ZM7.73103 7.71684C7.74032 7.70021 7.74946 7.69454 7.76358 7.68603L7.73103 7.71684Z" fill="white" stroke="white" stroke-width="0.2"/>
</svg>
