<svg xmlns="http://www.w3.org/2000/svg" width="92" height="92" viewBox="40 40 92 92" fill="none">
    <circle cx="86" cy="86" r="35.1322" fill="white"/>
    <path d="M96.2003 91.0758L93.2792 88.6402C92.4436 87.9431 91.2737 87.9559 90.5583 88.6695L89.8166 89.4075C89.4417 89.6258 88.7894 89.5173 87.9715 89.0989C85.3689 87.7673 82.3975 84.1391 82.347 82.6848C82.3378 82.422 82.4326 82.3648 82.4783 82.3373C82.5127 82.3166 82.5445 82.2917 82.5729 82.2633L83.3511 81.4852C84.0679 80.7703 84.0807 79.6018 83.381 78.7673L80.939 75.8535C79.4733 74.1062 78.2102 73.8992 77.4089 74.0333C76.3779 74.2058 75.5089 75.028 75.0249 76.2893C73.3508 80.6517 73.7247 83.9571 76.1682 86.3943L78.9396 89.1569C79.1336 89.3501 79.4476 89.3497 79.641 89.1557C79.8343 88.9617 79.8338 88.6477 79.6398 88.4544L76.8684 85.692C74.7027 83.5317 74.411 80.6569 75.9506 76.6446C76.3004 75.7333 76.9066 75.1228 77.5725 75.0114C78.3559 74.8804 79.2572 75.3918 80.1789 76.4906L82.6208 79.4043C82.9404 79.7854 83.0532 80.3813 82.6502 80.7833L81.9093 81.5241C81.5336 81.7779 81.3377 82.1995 81.3557 82.7191C81.4028 84.0732 82.8558 85.8949 83.4783 86.6152C84.7382 88.073 86.249 89.3315 87.5197 89.9816C88.7325 90.6021 89.7027 90.6788 90.4034 90.2095C90.4299 90.1917 90.4546 90.1715 90.4772 90.149L91.2581 89.372C91.6619 88.9693 92.2608 89.0821 92.6439 89.4018L95.5651 91.8374C96.6652 92.7548 97.1779 93.652 97.048 94.4321C96.9371 95.097 96.3249 95.7023 95.4103 96.0516C91.3863 97.5878 88.5031 97.2969 86.3366 95.1359L81.2975 90.1097C81.1036 89.9163 80.7896 89.9167 80.5963 90.1107C80.4029 90.3046 80.4033 90.6185 80.5972 90.8119L85.6363 95.8381C87.0829 97.281 88.8341 98.0001 90.9305 98C92.3739 97.9999 93.9812 97.6588 95.7641 96.9781C97.03 96.4948 97.8545 95.6262 98.0264 94.5952C98.1595 93.7955 97.951 92.5357 96.2003 91.0758Z" fill="#202332"/>
</svg>
