<svg width="20" height="19" viewBox="0 0 20 19" fill="none" xmlns="http://www.w3.org/2000/svg">
<g clip-path="url(#clip0_53_12445)">
<path d="M16.2654 12.2827C15.2307 11.248 13.9991 10.482 12.6554 10.0184C14.0945 9.02714 15.04 7.36824 15.04 5.49243C15.04 2.46405 12.5762 0.000244141 9.54785 0.000244141C6.51947 0.000244141 4.05566 2.46405 4.05566 5.49243C4.05566 7.36824 5.00117 9.02714 6.44039 10.0184C5.09666 10.482 3.86507 11.248 2.83035 12.2827C1.03604 14.0771 0.0478516 16.4627 0.0478516 19.0002H1.53223C1.53223 14.5804 5.12801 10.9846 9.54785 10.9846C13.9677 10.9846 17.5635 14.5804 17.5635 19.0002H19.0479C19.0479 16.4627 18.0597 14.0771 16.2654 12.2827ZM9.54785 9.50024C7.33795 9.50024 5.54004 7.70237 5.54004 5.49243C5.54004 3.28249 7.33795 1.48462 9.54785 1.48462C11.7578 1.48462 13.5557 3.28249 13.5557 5.49243C13.5557 7.70237 11.7578 9.50024 9.54785 9.50024Z" fill="white"/>
</g>
<defs>
<clipPath id="clip0_53_12445">
<rect width="19" height="19" fill="white" transform="translate(0.0478516 0.000244141)"/>
</clipPath>
</defs>
</svg>
